<?xml version="1.0" encoding="utf-8"?>
<!-- Generator: Adobe Illustrator 16.0.3, SVG Export Plug-In . SVG Version: 6.00 Build 0)  -->
<!DOCTYPE svg PUBLIC "-//W3C//DTD SVG 1.1//EN" "http://www.w3.org/Graphics/SVG/1.1/DTD/svg11.dtd">
<svg version="1.1" id="Ebene_1" xmlns="http://www.w3.org/2000/svg" xmlns:xlink="http://www.w3.org/1999/xlink" x="0px" y="0px"
	 width="666.255px" height="666.255px" viewBox="0 0 666.255 666.255" enable-background="new 0 0 666.255 666.255"
	 xml:space="preserve">
<g>
	<path fill-rule="evenodd" clip-rule="evenodd" fill="none" d="M44.407,275.527c0-91.84,0-183.68,0-275.521
		c97.92,0,195.84,0,293.76,0c-3.087,1.935-5.236,4.582-6.26,8.12c-0.242,0.837-0.704,1.609-0.991,2.436
		c-0.205,0.592-0.3,1.225-0.423,1.843c-0.292,1.471-0.542,2.952-0.866,4.415c-0.187,0.84-0.485,1.655-0.772,2.608
		c1.118,0.673,2.104,1.339,3.158,1.87c0.461,0.231,1.063,0.26,1.598,0.25c1.819-0.032,3.64-0.207,5.457-0.172
		c3.671,0.07,7.346,0.154,11.009,0.397c3.967,0.262,6.889-1.486,9.366-4.357c3.702-4.288,5.126-9.636,7.186-14.853
		c-0.654-0.11-1.109-0.22-1.571-0.259c-5.408-0.457-10.819-0.873-16.225-1.366c-2.602-0.238-5.19-0.617-7.785-0.932
		c93.601,0,187.201,0,280.801,0c0,96.16,0,192.32,0,288.48c-0.141-0.442-0.361-0.875-0.41-1.328
		c-0.552-5.084-1.105-10.169-1.595-15.259c-0.21-2.186-1.188-3.634-3.211-4.641c-4.149-2.065-8.194-4.34-12.288-6.515
		c-0.547-0.29-1.134-0.503-1.773-0.784c-0.84,1.284-1.78,2.306-1.615,3.946c0.746,7.397,1.439,14.801,2.076,22.209
		c0.101,1.166,0.563,1.876,1.481,2.525c3.658,2.582,7.335,5.146,10.882,7.877c1.842,1.418,3.697,1.61,5.985,1.003
		c0-0.99-0.06-1.947,0.014-2.894c0.098-1.251,0.298-2.494,0.454-3.741c0,125.082,0,250.163,0,375.361c-133.28,0-266.561,0-399.84,0
		c0.905-2.425,1.837-4.839,2.704-7.277c0.407-1.147,0.689-2.339,1.033-3.525c2.402,0.369,2.466,0.319,2.601-2.099
		c1.476-0.229,1.129-1.558,1.692-2.459c-4.736-4.464-9.359-8.821-14.124-13.313c-0.668,0.699-1.182,1.237-1.682,1.762
		c2.285,2.42,4.407,4.667,6.529,6.914c-2.607-2.211-5.216-4.422-8.021-6.802c0.072,1.332,0.127,2.341,0.196,3.616
		c-0.95,0-1.732-0.054-2.503,0.016c-0.698,0.063-1.447,0.129-2.064,0.424c-1.505,0.721-2.922,1.626-4.423,2.357
		c-0.981,0.478-1.268,1.263-1.011,2.15c0.205,0.71,0.651,1.426,1.176,1.957c4.307,4.367,8.65,8.697,12.999,13.022
		c1.122,1.115,2.303,2.172,3.457,3.256c-58.721,0-117.44,0-176.16,0c0-129.44,0-258.881,0-388.321
		c0.29,1.151,0.73,2.288,0.844,3.456c0.579,5.962,1.123,11.929,1.561,17.902c0.107,1.464,0.674,2.278,1.937,2.955
		c4.785,2.567,9.515,5.238,14.272,7.856c0.539,0.297,1.125,0.507,1.824,0.818c0.816-0.881,1.534-1.742,2.344-2.504
		c0.657-0.618,0.777-1.291,0.705-2.149c-0.339-4.059-0.569-8.127-0.934-12.184c-0.45-5.031-1.939-9.686-5.199-13.671
		c-0.982-1.202-2.091-2.112-3.576-2.679c-3.132-1.195-6.206-2.541-9.308-3.815c-0.79-0.324-1.595-0.613-2.286-0.878
		C45.752,273.992,45.079,274.76,44.407,275.527z M226.67,642.852c0.941,0.696,1.941,1.328,2.813,2.104
		c1.337,1.19,2.586,2.479,3.999,3.851c0.661-1.134,1.131-1.939,1.535-2.631c2.116,0.306,3.846,0.053,5.4-1.395
		c3.097-2.882,4.362-6.618,5.115-10.579c0.94-4.954,0.143-9.859-0.691-14.746c-0.358-2.104-0.761-4.2-1.128-6.213
		c-1.731-0.517-2.918-0.116-4.113,0.962c-4.327,3.902-8.775,7.67-13.109,11.564c-1.355,1.218-2.613,2.588-3.702,4.048
		c-1.449,1.943-1.338,2.262,0.4,4.043c1.069,1.095,2.153,2.175,3.23,3.262c-0.144,0.144-0.286,0.288-0.43,0.432
		c-1.72-1.591-3.438-3.181-5.284-4.888c-0.619,0.577-1.174,1.095-1.693,1.579c1.866,2.192,3.606,4.236,5.346,6.281
		c-1.986-1.807-3.973-3.613-6.181-5.621c-0.668,0.63-1.22,1.148-1.889,1.779c5.076,4.951,9.852,9.607,14.878,14.509
		c0.532-1.107,0.921-1.918,1.335-2.779C230.458,646.466,228.564,644.659,226.67,642.852z M502.123,474.09
		c-42.28-66.12-84.313-131.854-126.352-197.597c-12.836,0.192-25.498,0.64-38.323,0.595c0-20.761,0-41.185,0-61.609
		c0.129-0.062,0.258-0.125,0.387-0.187c64.751,82.418,129.501,164.837,194.444,247.501c2.201-3.565,4.238-6.864,6.311-10.221
		c-65.846-83.794-131.565-167.426-197.342-251.131c37.024-47.504,73.924-94.847,110.95-142.354
		c-3.891-2.361-7.486-4.543-11.213-6.805c-36.266,46.039-72.564,91.828-107.719,138.777c-11.045-13.896-21.876-27.523-32.827-41.301
		c-2.978,2.587-5.78,5.022-8.683,7.544c11.614,14.534,23.026,28.815,34.471,43.137c-20.181,25.897-40.216,51.607-60.422,77.536
		c-15.855-20.063-31.507-39.866-47.17-59.685c19.568-25.309,38.992-50.429,58.412-75.551c0.097-0.125,0.163-0.275,0.224-0.421
		c0.029-0.068,0.021-0.156,0.014-0.234c-0.006-0.076-0.029-0.149-0.083-0.396c-2.175-1.211-4.449-2.478-6.805-3.791
		c-19.15,24.709-38.124,49.19-57.221,73.831c-6.723-8.717-13.203-17.122-19.801-25.677c-2.462,1.939-4.742,3.737-7.102,5.597
		c7.383,9.169,14.548,18.069,21.77,27.04c-0.586,0.796-1.093,1.507-1.623,2.201c-33.06,43.292-66.121,86.583-99.184,129.874
		c-6.99,9.154-13.984,18.306-20.967,27.467c-0.563,0.739-1.387,1.389-1.063,2.524c0.52,1.828,1.019,3.662,1.48,5.324
		c1.983,0.728,2.515-0.706,3.254-1.658c27.453-35.396,54.894-70.801,82.336-106.205c12.203-15.742,24.406-31.483,36.614-47.22
		c0.494-0.638,1.047-1.23,1.772-2.076c0.528,4.894,0.326,36.547-0.235,38.37c-0.826,0-1.699,0-2.572,0
		c-7.359,0-14.721,0.054-22.079-0.041c-1.661-0.021-2.564,0.556-3.425,1.929c-25.168,40.193-50.377,80.36-75.575,120.534
		c-0.415,0.662-0.782,1.354-1.318,2.289c4.083,1.516,7.924,3.064,11.845,4.376c14.29,4.781,29.004,7.782,43.841,10.241
		c1.373,0.228,2.733,0.534,4.425,0.868c-12.757,16.278-25.265,32.24-37.765,48.19c2.59,3.939,5.025,7.643,7.571,11.514
		c0.706-0.859,1.224-1.46,1.709-2.085c13.938-17.938,27.888-35.868,41.778-53.843c1.049-1.357,2.12-1.853,3.816-1.754
		c6.786,0.392,13.581,0.646,20.372,0.96c0.359,0.017,0.715,0.113,1.402,0.228c-12.665,21.782-25.18,43.306-37.79,64.994
		c0.961,0.378,1.677,0.685,2.408,0.944c12.522,4.453,25.346,7.828,38.331,10.592c16.745,3.564,33.65,6.078,50.69,7.792
		c12.979,1.305,25.983,2.21,39.009,2.619c11.508,0.361,23.032,0.315,34.548,0.249c16.241-0.095,32.447-1.007,48.631-2.412
		c15.219-1.32,30.383-3.055,45.491-5.312c20.013-2.99,39.847-6.875,59.495-11.7C490.772,477.11,496.243,475.62,502.123,474.09z
		 M432.627,90.661c0.142,0.337,0.179,0.499,0.268,0.62c0.142,0.192,0.308,0.37,0.481,0.534c8.943,8.451,14.334,18.875,17.063,30.769
		c0.653,2.848,1.844,5.429,3.535,7.801c5.651,7.921,13.556,13.476,20.568,19.88c0.872-0.477,1.019-0.979,0.614-1.676
		c-0.56-0.967-1.12-1.938-1.611-2.94c-3.514-7.191-4.861-14.874-4.737-22.789c0.115-7.349,0.636-14.69,0.871-22.039
		c0.218-6.803,0.089-13.583-1.938-20.189c-2.445-7.971-7.388-13.976-14.341-18.739C446.388,71.604,439.477,81.176,432.627,90.661z
		 M345.274,561.797c2.44,0.486,4.305,0.044,6.205-1.112c6.965-4.236,14.011-8.338,21.052-12.447
		c1.077-0.629,1.844-1.419,2.477-2.494c3.275-5.56,7.296-10.492,12.462-14.426c3.367-2.564,7.051-4.372,11.332-4.781
		c0.584-0.056,1.15-0.284,1.706-0.429c-0.312-1.735-1.269-2.587-2.669-3.034c-0.836-0.268-1.653-0.596-2.494-0.844
		c-5.598-1.645-11.072-0.754-16.519,0.803c-8.233,2.353-15.67,6.328-22.754,11.055c-1.262,0.842-2.058,1.834-2.544,3.289
		c-2.459,7.348-5.019,14.661-7.534,21.99C345.741,560.106,345.548,560.867,345.274,561.797z M248.809,565.16
		c-0.128,0.153-0.303,0.309-0.411,0.501c-3.056,5.44-3.762,11.325-3.109,17.406c0.694,6.477,2.556,12.625,5.116,18.634
		c1.329,3.119,3.222,5.447,6.064,7.073c0.861,0.493,1.9,0.887,2.877,0.933c4.965,0.235,9.647-1.176,14.261-2.779
		c1.739-0.604,2.168-2.382,1.127-3.881c-0.727-1.047-1.77-1.952-2.219-3.098c-2.155-5.503-4.131-11.074-6.228-16.6
		c-0.532-1.403-1.07-2.883-1.966-4.051c-1.401-1.826-2.964-3.589-4.718-5.07c-3.475-2.934-7.188-5.584-10.304-8.933
		C249.214,565.203,249.016,565.213,248.809,565.16z M290.218,601.566c0.447,0.224,0.653,0.335,0.866,0.434
		c2.623,1.208,5.475,0.989,8.237,1.292c3.791,0.414,7.662,0.083,11.368,1.335c0.634,0.215,1.431,0.049,2.135-0.057
		c4.097-0.617,7.526-2.593,10.503-5.376c1.985-1.855,3.771-3.93,5.805-5.727c1.971-1.741,2.85-3.948,3.47-6.291
		c-0.169-0.225-0.237-0.393-0.362-0.466c-0.273-0.162-0.57-0.288-0.867-0.407c-5.542-2.216-11.283-3.647-17.264-3.565
		c-4.301,0.06-8.592,0.648-12.895,0.863c-2.201,0.11-3.71,1.211-5.109,2.731C292.163,590.616,290.822,595.875,290.218,601.566z
		 M323.879,605.082c0.928,0.4,1.718,0.765,2.524,1.086c6.459,2.574,12.949,5.072,19.37,7.738c2.891,1.2,5.686,0.811,8.36-0.234
		c4.624-1.806,8.992-4.126,12.82-7.383c1.981-1.686,1.836-4.078-0.414-5.285c-3.238-1.736-6.445-3.531-9.643-5.342
		c-3.62-2.051-7.239-4.085-11.274-5.252c-2.218-0.642-4.365-0.816-6.545,0.177c-1.158,0.527-2.396,0.899-3.619,1.264
		c-1.43,0.426-2.524,1.185-3.431,2.42c-2.271,3.094-4.677,6.089-7.017,9.133C324.63,603.9,324.308,604.443,323.879,605.082z
		 M305.07,574.537c1.972,0.305,3.676,0.995,5.211,0.727c5.02-0.881,9.977-2.112,14.959-3.205c5.396-1.185,10.31-3.32,14.37-7.186
		c1.067-1.017,1.811-2.121,2.084-3.642c0.451-2.508,1.14-4.973,1.712-7.459c0.802-3.482,1.589-6.968,2.406-10.556
		c-1.075-0.592-2.033-1.119-2.85-1.569c-1.944,1.054-3.687,2.021-5.449,2.949c-6.072,3.194-12.138,6.402-18.24,9.54
		c-1.331,0.685-2.294,1.602-3.085,2.858c-3.232,5.132-6.532,10.222-9.801,15.331C306.006,572.921,305.661,573.542,305.07,574.537z
		 M312.282,555.23c-0.771-0.938-1.345-1.757-2.686-1.865c-3.977-0.322-7.936-0.843-11.907-1.233
		c-3.655-0.36-7.314-0.732-10.988-0.135c-2.695,0.438-5.351,0.967-7.583,2.693c-2.831,2.189-5.071,4.881-6.554,8.132
		c-0.95,2.085-1.846,4.237-1.489,6.569c2.367,1.768,4.745,3.02,7.7,3.16c4.226,0.2,8.441,0.628,12.653,1.042
		c2.494,0.246,4.923,0.047,7.369-0.456c1.191-0.245,1.987-0.766,2.656-1.779c2.774-4.198,5.622-8.348,8.437-12.519
		C310.69,557.655,311.471,556.458,312.282,555.23z M73.056,167.395c-0.237,0.157-0.475,0.314-0.712,0.472
		c-3.561,8.455-7.026,16.951-10.732,25.342c-1.364,3.09-0.726,5.599,1.3,7.893c3.344,3.787,6.388,7.761,8.66,12.292
		c0.107,0.213,0.224,0.425,0.355,0.624c0.96,1.451,2.028,1.457,2.845-0.051c0.873-1.613,1.672-3.268,2.475-4.917
		c2.375-4.878,4.86-9.709,6.316-14.975c1.121-4.053,1.569-8.131,0.732-12.312c-0.245-1.223-0.689-2.233-1.54-3.152
		c-2.93-3.165-5.817-6.368-8.691-9.583C73.645,168.557,73.388,167.942,73.056,167.395z M482.604,62.356
		c-0.282,0.501-0.403,0.703-0.513,0.912c-1.303,2.492-0.627,3.6,1.467,4.91c6.297,3.94,12.511,8.014,18.788,11.985
		c0.771,0.487,1.736,0.958,2.605,0.946c4.226-0.06,8.463-0.119,12.453-1.887c1.6-0.709,3.274-1.303,4.97-1.732
		c2.04-0.517,3.012-1.847,3.558-3.813c-3.374-3.001-6.783-5.897-10.034-8.96c-3.569-3.364-7.549-6.131-11.676-8.74
		c-1.155-0.731-2.176-0.891-3.351-0.345c-1.591,0.738-3.193,1.46-4.745,2.276C491.872,60.145,487.602,62.309,482.604,62.356z
		 M402.987,9.83c-1.557-1.057-2.826-2.289-4.683-2.52c-7.84-0.977-15.679-1.961-23.515-2.966c-2.528-0.324-4.283,0.709-5.507,2.879
		c-2.392,4.241-4.822,8.46-7.224,12.697c-0.293,0.518-0.506,1.081-0.854,1.835c3.377,0.56,6.515,1.052,9.641,1.603
		c6.352,1.12,12.695,2.28,19.048,3.39c0.443,0.077,0.947-0.071,1.399-0.197c1.819-0.507,3.427-1.439,4.537-2.958
		c1.219-1.665,2.38-3.404,3.31-5.241C400.506,15.653,401.644,12.839,402.987,9.83z M401.956,610.524
		c0.625,0.551,0.908,0.824,1.215,1.066c5.946,4.705,11.951,9.335,17.813,14.142c2.342,1.92,4.843,2.525,7.756,2.275
		c4.454-0.382,8.901-0.593,13.313,0.588c1.361,0.365,2.852,0.297,4.285,0.328c0.704,0.016,1.45-0.089,2.113-0.321
		c1.668-0.586,1.968-1.805,0.759-3.07c-1.599-1.675-3.273-3.275-4.885-4.938c-4.777-4.931-9.566-9.852-14.285-14.838
		c-0.975-1.03-1.827-1.46-3.31-1.132c-3.189,0.706-6.428,1.205-9.662,1.692C411.999,607.079,407.232,608.862,401.956,610.524z
		 M552.546,99.703c-0.393-0.57-0.803-1.361-1.389-1.99c-5.011-5.386-10.061-10.737-15.078-16.118
		c-0.581-0.623-1.189-0.961-2.063-0.995c-2.716-0.104-5.429-0.3-8.145-0.419c-0.71-0.031-1.484-0.074-2.13,0.161
		c-4.269,1.551-8.51,3.177-12.708,4.759c-0.061,0.403-0.139,0.636-0.124,0.864c0.195,3.075,2.176,5.136,4.34,6.877
		c4.796,3.859,9.773,7.491,14.636,11.27c0.969,0.753,1.886,0.926,3.093,0.774c5.075-0.64,10.157-1.263,15.254-1.674
		C550.525,103.025,551.999,102.207,552.546,99.703z M204.746,30.323c-4.214,2.367-8.193,4.577-12.146,6.836
		c-1.524,0.873-3.017,1.811-4.468,2.801c-2.943,2.008-5.416,4.486-7.149,7.627c-0.375,0.678-0.642,1.463-0.753,2.229
		c-0.206,1.421-0.426,2.874-0.348,4.296c0.207,3.742,0.537,7.479,0.897,11.21c0.09,0.938,0.709,1.805,1.769,1.428
		c2.474-0.878,5.207-1.505,7.241-3.028c3.034-2.273,6.252-4.153,9.563-5.902c4.17-2.202,6.367-5.89,7.997-10.053
		c0.254-0.649,0.323-1.409,0.316-2.116c-0.042-4.154-0.153-8.307-0.188-12.461c-0.008-0.911-0.322-1.523-1.105-1.941
		C205.813,30.951,205.269,30.622,204.746,30.323z M64.659,278.23c0.679-1.585,1.595-2.846,1.729-4.184
		c0.647-6.433,1.306-12.879,1.518-19.336c0.144-4.365-1.656-8.01-5.756-10.268c-3.845-2.117-7.583-4.428-11.376-6.641
		c-0.594-0.347-1.227-0.628-1.919-0.979c-0.149,0.465-0.293,0.758-0.337,1.065c-0.71,4.975-1.55,9.937-2.065,14.932
		c-0.43,4.154,0.106,8.284,1.225,12.327c0.535,1.935,1.597,3.454,3.25,4.574c3.437,2.329,6.85,4.695,10.325,6.965
		C62.213,277.313,63.361,277.653,64.659,278.23z M187.186,538.111c0.189,0.141,0.416,0.368,0.688,0.501
		c7.539,3.682,15.082,7.355,22.628,11.023c0.354,0.172,0.735,0.376,1.114,0.402c3.933,0.269,7.621-0.484,10.857-2.838
		c1.679-1.222,3.138-2.811,4.941-3.772c1.372-0.731,2.247-1.635,2.95-2.92c1.188-2.172,0.859-3.555-1.346-4.641
		c-6.237-3.072-12.488-6.113-18.76-9.113c-0.589-0.282-1.385-0.354-2.037-0.244c-2.762,0.468-5.403,1.285-7.916,2.602
		c-3.466,1.817-6.981,3.559-10.563,5.131C187.972,535.019,187.055,536.075,187.186,538.111z M555.22,443.187
		c-2.535-0.398-3.922,0.436-5.108,2.295c-3.647,5.717-7.49,11.31-11.227,16.971c-0.744,1.128-1.333,2.358-2.032,3.518
		c-0.542,0.897-0.485,1.726-0.148,2.72c1.254,3.699,2.374,7.444,3.58,11.159c0.492,1.516,1.048,3.013,1.641,4.491
		c0.164,0.41,0.491,0.875,0.868,1.057c1.46,0.705,3.762-0.044,4.794-1.438c2.372-3.208,4.77-6.397,7.135-9.61
		c1.75-2.378,3.499-4.758,5.187-7.179c1.961-2.814,2.404-5.862,1.146-9.094C559.115,453.1,557.158,448.132,555.22,443.187z
		 M295.921,196.585c-3.326-4.721-4.327-10.095-4.901-15.609c-0.429-4.129-0.818-8.264-1.333-12.383
		c-0.666-5.324-1.657-10.574-4.201-15.395c-1.931-3.657-4.507-6.702-8.27-9.005c-3.876,5.556-7.648,10.963-11.431,16.386
		C274.789,173.614,283.771,186.41,295.921,196.585z M613.324,228.968c-0.081-3.997,0.559-8.009-0.395-11.904
		c-1.098-4.488-2.713-8.847-3.873-13.321c-0.803-3.097-2.879-4.938-5.486-6.259c-1.54-0.78-3.287-1.305-4.999-1.558
		c-3.545-0.525-7.129-0.792-10.696-1.166c-2.067,1.678-2.198,3.764-1.336,6.053c0.647,1.718,1.607,3.37,1.944,5.143
		c0.876,4.598,2.715,8.845,4.443,13.132c0.458,1.138,1.205,2.277,2.108,3.098C600.128,226.806,606.509,228.108,613.324,228.968z
		 M108.825,472.343c0.591,0.663,1.108,1.266,1.647,1.849c3.366,3.641,6.836,7.192,10.072,10.945
		c2.302,2.669,5.006,4.524,8.208,5.979c3.127,1.422,6.057,1.145,9.033,0.054c2.548-0.934,4.99-2.149,7.509-3.169
		c1.68-0.682,3.411-1.237,5.333-1.927c-0.583-0.639-0.979-1.121-1.422-1.554c-4.01-3.906-8.102-7.732-12.017-11.73
		c-2.492-2.544-5.331-4.559-8.292-6.469c-0.945-0.61-1.849-0.795-2.937-0.597c-2.83,0.516-5.673,0.958-8.508,1.445
		c-2.507,0.431-5.01,0.884-7.532,1.331C109.55,469.804,109.224,470.947,108.825,472.343z M46.465,305.281
		c-0.805,3.471-0.896,6.841-0.376,10.117c0.961,6.06,2.243,12.07,3.47,18.084c0.164,0.806,0.644,1.648,1.211,2.254
		c2.557,2.731,5.581,4.736,9.273,5.645c2.708,0.667,5.398,1.402,8.098,2.104c1.253,0.325,1.881,0.102,2.195-1.105
		c0.274-1.056,0.402-2.201,0.323-3.287c-0.182-2.465-0.537-4.917-0.81-7.376c-0.573-5.199-1.563-10.261-4.639-14.674
		c-1.526-2.192-3.298-4.029-5.786-5.212c-3.603-1.712-7.1-3.645-10.648-5.471C48.079,306.001,47.355,305.695,46.465,305.281z
		 M251.693,559.712c-0.284,2.253,0.683,4.484,2.892,6.374c2.121,1.813,3.979,3.932,5.968,5.901c1.872,1.854,3.75,1.638,5.004-0.65
		c6.256-11.414,9.832-23.72,12.034-36.472c0.271-1.564-0.816-2.553-2.42-2.235c-1.487,0.294-2.937,0.789-4.427,1.057
		c-1.4,0.252-2.513,0.895-3.542,1.848c-2.23,2.063-4.458,4.138-6.802,6.066c-2.85,2.345-4.849,5.293-6.451,8.54
		C252.558,552.961,251.664,555.936,251.693,559.712z M372.623,602.648c1.179,0.271,1.862,0.479,2.562,0.583
		c4.742,0.712,9.485,1.422,14.234,2.085c1.091,0.152,2.239,0.318,3.308,0.145c9.15-1.486,18.289-3.046,27.428-4.603
		c0.415-0.07,0.801-0.313,1.367-0.544c-2.466-2.621-5.023-4.749-7.855-6.579c-4.944-3.194-10.483-5.082-15.845-7.37
		c-2.822-1.204-5.623-1.21-8.4-0.115c-6.749,2.658-12.17,6.967-15.853,13.285C373.08,600.372,372.979,601.433,372.623,602.648z
		 M517.57,510.234c4.656-3.231,8.986-6.222,13.293-9.245c0.441-0.311,0.774-0.8,1.1-1.248c1.922-2.65,3.838-5.304,5.724-7.979
		c0.358-0.508,0.813-1.119,0.811-1.681c-0.006-2.225,0.093-4.504-0.348-6.661c-0.716-3.51-1.767-6.957-2.791-10.396
		c-0.508-1.703-0.898-3.495-2.229-5.258c-1.906,1.674-3.807,3.127-5.448,4.829c-3.27,3.391-6.328,6.984-9.61,10.361
		c-1.772,1.823-3.047,3.888-3.896,6.225c-0.308,0.847-0.452,1.861-0.312,2.741c0.44,2.755,1.042,5.484,1.603,8.22
		C516.134,503.406,516.825,506.666,517.57,510.234z M277.117,549.948c1.825,0,3.331,0.048,4.832-0.009
		c7.021-0.263,14.038-0.599,21.06-0.8c1.477-0.043,2.568-0.48,3.581-1.519c3.356-3.436,6.947-6.586,11.213-8.882
		c0.241-0.13,0.419-0.379,0.667-0.609c-2.093-2.158-4.211-3.916-6.944-4.826c-1.437-0.479-2.815-1.128-4.246-1.624
		c-7.591-2.638-15.239-3.326-22.995-0.67c-1.316,0.45-2.09,1.145-2.483,2.569c-1.316,4.766-2.8,9.485-4.206,14.226
		C277.418,548.401,277.321,549.02,277.117,549.948z M556.958,136.265c0.166,1.739,0.107,3.28,0.501,4.696
		c0.529,1.905,1.269,3.784,2.163,5.549c2.514,4.961,5.978,9.221,10.004,13.042c1.566,1.487,3.219,2.375,5.541,2.184
		c3.893-0.318,7.811-0.342,11.719-0.439c1.035-0.025,1.723-0.323,2.35-1.245c0.864-1.27,0.899-2.421,0.392-3.807
		c-3.243-8.86-8.885-15.967-15.957-22.051c-0.729-0.627-1.477-0.825-2.418-0.625c-1.637,0.349-3.291,0.613-4.937,0.923
		C563.349,135.05,560.383,135.615,556.958,136.265z M299.941,607.466c-3.708-2.042-7.426-2.664-11.32-2.44
		c-3.708,0.212-7.24,1.193-10.676,2.541c-4.31,1.69-8.585,3.472-12.905,5.134c-1.982,0.763-4.038,1.335-6.122,2.014
		c0.125,0.331,0.154,0.583,0.292,0.742c0.416,0.483,0.854,0.951,1.318,1.389c3.547,3.336,7.625,5.83,12.273,7.25
		c3.965,1.21,8.021,2.12,12.018,3.232c3.198,0.892,6.286-0.126,9.452-0.119C296.189,620.531,298.037,614.096,299.941,607.466z
		 M267.024,9.827c-2.951-0.399-5.712-0.359-8.479-0.015c-6.181,0.77-11.863,3.107-17.487,5.609c-0.529,0.236-1.21,0.725-1.322,1.212
		c-0.644,2.784-1.729,5.505-1.459,8.447c0.314,3.43,0.356,6.844-0.383,10.239c-0.178,0.819-0.16,1.68-0.248,2.714
		c1.001-0.115,1.778-0.221,2.559-0.29c3.318-0.292,6.314-1.596,9.326-2.889c2.49-1.07,4.951-2.361,7.562-2.957
		c2.274-0.519,4.135-1.587,6.054-2.716c0.76-0.447,1.086-1.043,1.213-1.909c0.566-3.87,1.203-7.729,1.802-11.594
		C266.452,13.804,266.716,11.924,267.024,9.827z M89.856,438.204c-1.635,2.157-1.341,3.83-0.018,5.718
		c2.886,4.118,5.691,8.305,8.295,12.605c1.759,2.905,4.034,5.056,7.019,6.603c1.118,0.579,2.173,0.874,3.419,0.736
		c2.698-0.299,5.406-0.503,8.106-0.781c2.768-0.285,5.53-0.613,8.281-0.921c-0.106-2.715-0.56-4.146-1.877-5.932
		c-2.37-3.213-4.893-6.326-7.09-9.652c-2.131-3.226-4.857-5.679-8.213-7.476c-0.813-0.436-1.761-0.847-2.654-0.861
		C100.028,438.162,94.929,438.204,89.856,438.204z M511.32,492.583c-2.522,0.067-4.775,0.791-6.572,2.206
		c-3.262,2.569-6.604,5.057-9.686,7.829c-2.055,1.85-3.737,4.118-5.547,6.232c-0.7,0.818-0.878,1.797-0.807,2.906
		c0.303,4.703,0.509,9.411,0.774,14.116c0.08,1.42,0.239,2.834,0.355,4.176c1.358,0.529,2.312,0.182,3.292-0.51
		c3.199-2.255,6.551-4.305,9.64-6.698c3.018-2.339,5.801-4.984,8.653-7.533c1.246-1.113,1.944-2.567,1.898-4.245
		c-0.061-2.223-0.163-4.452-0.421-6.659C512.441,500.449,511.853,496.51,511.32,492.583z M61.271,376.217
		c-1.677,1.177-1.886,2.533-1.331,4.284c0.745,2.354,1.355,4.763,1.829,7.187c1.005,5.14,3.806,9.255,7.289,12.955
		c2.315,2.458,5.152,3.92,8.665,4.02c2.788,0.08,5.577,0.383,8.348,0.729c1.694,0.212,3.098-0.19,4.496-1.273
		c-2.202-6.887-4.537-13.643-7.673-20.123c-1.163-2.405-2.833-4.067-5.168-5.023c-1.898-0.776-3.917-1.4-5.94-1.699
		C68.321,376.76,64.812,376.556,61.271,376.217z M574.141,131.085c0.16-2.545,0.181-2.561-0.976-4.098
		c-1.441-1.917-2.89-3.832-4.391-5.702c-3.251-4.051-6.552-8.063-9.8-12.116c-0.85-1.06-1.916-1.623-3.215-1.901
		c-3.091-0.662-6.075-0.346-8.837,1.164c-1.858,1.016-3.815,1.587-5.858,2.006c-1.222,0.25-2.421,0.612-3.702,0.942
		c0.226,1.738-0.485,3.292,0.786,4.751c3.514,4.036,7,8.102,10.318,12.298c1.688,2.135,4.081,3.002,6.281,4.248
		c0.367,0.208,0.936,0.118,1.404,0.079c3.266-0.27,6.531-0.549,9.794-0.852C568.642,131.654,571.332,131.367,574.141,131.085z
		 M571.936,166.86c3.139,6.291,6.188,12.433,9.268,18.561c1.53,3.044,3.815,4.996,7.406,5.183c1.746,0.091,3.479,0.445,5.217,0.691
		c3.285,0.464,6.569,0.936,9.924,1.415c0.672-2.64,0.706-5.159-0.403-7.571c-2.468-5.362-4.941-10.724-7.541-16.023
		c-1.063-2.169-3.086-3.665-5.372-3.944c-4.904-0.599-9.864-0.72-14.798-1.094c-1.08-0.082-1.839,0.239-2.429,1.119
		C572.854,165.724,572.438,166.207,571.936,166.86z M572.242,415.591c-0.945,0.616-2.358,1.02-2.78,1.898
		c-2.338,4.87-5.803,8.992-8.607,13.541c-1.537,2.495-2.853,5.175-3.893,7.914c-0.957,2.521-0.743,5.132,0.565,7.648
		c1.62,3.117,3.094,6.313,4.527,9.522c0.648,1.45,1.589,2.305,3.229,2.475c0.358-0.444,0.72-0.864,1.05-1.307
		c4.019-5.38,7.938-10.837,12.094-16.108c1.61-2.044,1.868-4.111,1.489-6.478c-0.513-3.198-1.859-6.097-3.173-9.012
		C575.304,422.489,573.887,419.282,572.242,415.591z M72.572,408.409c-0.348,1.693-0.956,3.108-0.226,4.635
		c1.861,3.886,3.563,7.855,5.59,11.652c1.665,3.121,3.994,5.783,6.941,7.833c2.435,1.692,5.04,2.653,8.096,2.33
		c3.416-0.361,6.853-0.528,10.28-0.783c0.995-0.074,1.989-0.156,3.195-0.252c-0.382-0.945-0.622-1.606-0.911-2.245
		c-1.449-3.203-2.899-6.406-4.371-9.599c-1.998-4.333-5.043-7.75-9.125-10.212C86.065,408.166,79.516,407.861,72.572,408.409z
		 M394.049,610.676c-0.898-0.688-1.612-1.565-2.519-1.87c-3.549-1.192-7.111-2.414-10.759-3.225
		c-3.589-0.797-7.164-0.358-10.386,1.668c-5.34,3.36-10.677,6.726-16.004,10.106c-0.435,0.276-0.779,0.694-1.299,1.169
		c0.558,0.475,0.916,0.923,1.383,1.151c4.587,2.25,9.188,4.468,13.795,6.679c0.426,0.204,0.9,0.4,1.36,0.422
		c3.587,0.17,7.175,0.337,10.764,0.403c0.761,0.015,1.709-0.169,2.262-0.631c2.018-1.685,4.307-3.254,5.746-5.373
		C390.57,617.968,392.121,614.335,394.049,610.676z M435.783,19.882c-1.681-1.026-3.148-2.204-4.819-2.883
		c-3.544-1.441-7.169-2.7-10.809-3.885c-2.979-0.971-6.082-1.423-9.217-1.069c-1.396,0.158-2.867,0.466-4.103,1.1
		c-2.875,1.474-5.194,3.545-6.67,6.577c-1.278,2.625-2.937,5.066-4.454,7.634c1.643,1.242,3.08,2.317,4.943,2.741
		c4.514,1.026,9.002,2.16,13.515,3.188c0.912,0.208,1.897,0.257,2.83,0.172c1.826-0.167,3.633-0.557,5.46-0.705
		c1.124-0.091,1.921-0.539,2.669-1.34c3.16-3.387,6.365-6.732,9.542-10.104C435.041,20.916,435.339,20.457,435.783,19.882z
		 M332.112,0.631c-0.881,0-1.736,0-2.592,0c-5.279,0-10.562,0.122-15.836-0.037c-4.652-0.14-8.075,1.827-10.374,5.667
		c-1.551,2.592-2.676,5.437-4.031,8.149c-0.881,1.763-1.212,3.599-1.109,5.563c0.113,2.204,0.695,2.878,2.919,2.731
		c7.021-0.464,14.036-1.01,21.057-1.475c1.36-0.09,2.186-0.679,2.77-1.893c2.219-4.608,4.472-9.2,6.764-13.773
		C332.438,4.047,332.447,2.525,332.112,0.631z M369.34,571.854c2.313,0.338,4.101,0.78,5.899,0.83
		c6.241,0.172,12.452-0.047,18.515-1.853c1.703-0.507,2.984-1.311,3.869-2.891c0.817-1.459,1.778-2.851,2.798-4.18
		c1.106-1.443,1.676-3.029,1.893-4.816c0.354-2.915,0.798-5.82,1.217-8.825c-1.994-0.689-3.759-1.254-5.755-0.965
		c-5.769,0.836-11.547,1.61-17.331,2.335c-1.012,0.127-1.552,0.568-1.994,1.42c-2.765,5.313-5.592,10.596-8.322,15.927
		C369.685,569.702,369.614,570.758,369.34,571.854z M598.731,401.354c2.386-5.694,4.902-11.472,7.218-17.327
		c1.149-2.907,1.594-6.005,1.497-9.167c-0.044-1.431-0.494-2.581-1.426-3.686c-3.658-4.337-7.237-8.739-10.855-13.109
		c-0.438-0.53-0.933-1.014-1.503-1.628c-0.224,0.464-0.411,0.73-0.485,1.025c-2.244,8.902-4.461,17.811-6.731,26.705
		c-0.308,1.206-0.012,2.143,0.611,3.146c2.569,4.141,5.162,8.271,7.58,12.499C595.615,401.524,596.78,402.014,598.731,401.354z
		 M441.525,21.91c-1.063,0.802-2.074,1.74-3.237,2.412c-4.906,2.833-7.544,7.708-10.872,11.953c-0.901,1.148-0.46,2.204,0.933,2.806
		c0.364,0.158,0.757,0.25,1.135,0.378c4.834,1.649,9.768,3.061,14.465,5.034c3.087,1.297,5.881,1.094,8.763-0.039
		c2.073-0.815,4.085-1.806,6.062-2.837c0.668-0.348,1.19-1.022,1.699-1.616c1.344-1.569,2.635-3.184,3.964-4.766
		c0.495-0.589,1.038-1.138,1.585-1.733c-0.391-0.496-0.568-0.917-0.884-1.094c-4.87-2.739-9.759-5.448-14.645-8.16
		c-0.138-0.076-0.292-0.13-0.444-0.169C447.277,23.372,444.507,22.668,441.525,21.91z M157.271,83.957
		c2.565,0.524,4.791,0.173,6.873-1.653c2.396-2.101,4.988-4.005,7.634-5.788c2.47-1.664,4.378-3.697,5.375-6.502
		c0.446-1.255,0.932-2.563,1.016-3.872c0.561-8.794,0.53-8.797-2.347-17.057c-0.195-0.561-0.497-1.084-0.826-1.79
		c-6.486,4.23-12.46,8.694-17.597,14.258c-2.194,2.376-2.977,5.003-2.706,8.093c0.063,0.716,0.056,1.445,0.19,2.147
		C155.646,75.781,156.443,79.763,157.271,83.957z M469.974,36.361c-5.687,3.74-12.185,6.173-16.296,11.953
		c0.279,0.239,0.441,0.423,0.643,0.542c6.666,3.959,13.353,7.886,19.989,11.895c1.063,0.643,1.893,0.442,2.892,0.023
		c5.229-2.198,10.446-4.433,15.733-6.487c1.83-0.711,2.803-1.928,3.536-3.778C487.617,45.781,478.819,41.084,469.974,36.361z
		 M235.683,17.777c-0.915,0.268-1.675,0.473-2.422,0.713c-3.574,1.148-7.14,2.322-10.718,3.456
		c-4.878,1.546-9.022,3.982-11.113,8.974c-0.092,0.219-0.247,0.41-0.367,0.618c-3.462,5.993-2.296,12.101-0.738,18.188
		c0.358,0.047,0.446,0.088,0.505,0.062c7.245-3.167,14.496-6.319,21.714-9.546c0.552-0.247,1.095-0.956,1.262-1.556
		C235.685,31.937,236.428,25.069,235.683,17.777z M58.477,201.88c-1.187,1.976-1.89,3.514-2.155,5.315
		c-1.07,7.269-2.177,14.535-3.447,21.771c-0.361,2.06,0.11,3.518,1.555,4.927c3.261,3.181,6.479,6.41,9.631,9.698
		c1.237,1.291,2.555,2.11,4.456,1.906c1.09-1.249,1.801-2.668,2.015-4.424c0.725-5.946,1.502-11.888,2.391-17.812
		c0.209-1.392-0.039-2.414-0.852-3.528c-3.578-4.907-7.047-9.893-10.626-14.8C60.67,203.874,59.604,203.026,58.477,201.88z
		 M433.888,558.731c2.439-0.394,4.446-0.354,6.144-1.058c5.304-2.2,10.503-4.655,15.706-7.09c0.634-0.297,1.294-0.985,1.517-1.638
		c1.208-3.536,2.747-6.974,3.014-10.796c0.177-2.542,0.633-5.065,0.999-7.592c0.148-1.026,0.432-1.945-0.667-2.774
		c-1.06-0.802-1.927-0.758-3.064-0.258c-5.989,2.634-12.009,5.197-18.011,7.8c-0.503,0.218-1.165,0.432-1.4,0.847
		c-1.166,2.061-2.731,3.929-2.999,6.437c-0.371,3.49-0.926,6.963-1.257,10.456C433.705,554.779,433.868,556.523,433.888,558.731z
		 M462.052,545.983c2.719,0.63,4.808,0.099,6.663-1.654c0.854-0.805,1.959-1.372,3.012-1.931c3.53-1.872,7.149-3.585,10.617-5.563
		c2.914-1.663,4.766-4.156,4.565-7.731c-0.312-5.588-0.658-11.174-1.005-16.76c-0.022-0.368-0.164-0.729-0.283-1.229
		c-2.481,0.514-4.789,0.982-6.839,2.339c-3.4,2.249-6.813,4.481-10.272,6.64c-1.215,0.758-2.012,1.756-2.628,3.005
		c-1.627,3.297-2.212,6.834-2.376,10.443C463.318,537.688,463.293,541.843,462.052,545.983z M108.383,111.559
		c-2.104-0.684-3.229-0.013-4.245,1.564c-3.288,5.097-6.706,10.11-10.113,15.128c-2.302,3.392-2.622,6.955-1.031,10.686
		c0.562,1.316,1.201,2.619,1.971,3.822c1.72,2.688,3.504,5.336,5.354,7.936c0.451,0.634,1.257,1.016,2.026,1.612
		c0.627-0.942,1.081-1.585,1.495-2.253c3.031-4.881,5.942-9.843,9.13-14.62c1.562-2.341,1.751-4.655,1.263-7.26
		C113.133,122.311,110.48,117.017,108.383,111.559z M120.358,128.133c3.722-5.35,7.503-10.779,11.268-16.219
		c0.219-0.316,0.432-0.727,0.428-1.091c-0.022-2.308,0.16-4.661-0.227-6.913c-0.811-4.709-1.957-9.36-2.903-14.047
		c-0.181-0.894-0.537-1.351-1.416-1.66c-2.404-0.846-3.136-0.696-4.707,1.341c-0.73,0.948-1.423,1.925-2.135,2.888
		c-3.131,4.236-6.264,8.471-9.393,12.708c-0.986,1.335-1.565,2.694-0.886,4.43c2.093,5.343,4.101,10.72,6.138,16.084
		C117.425,128.021,117.422,128.023,120.358,128.133z M136.681,104.949c2.569-1.303,5.01-2.383,6.851-4.521
		c2.083-2.418,4.316-4.707,6.529-7.01c2.66-2.768,4.037-6.084,4.323-9.871c0.373-4.947-0.585-9.669-2.354-14.283
		c-0.58-1.514-1.421-2.412-2.991-2.56c-4.584,4.045-9.062,8.137-13.705,12.028c-1.91,1.601-3.044,3.469-3.298,5.854
		c-0.185,1.733-0.355,3.528-0.11,5.235C132.68,95.068,134.858,99.883,136.681,104.949z M610.912,368.476
		c0.135-0.276,0.242-0.412,0.267-0.562c1.442-8.912,2.866-17.828,4.327-26.738c0.172-1.047-0.086-1.819-0.808-2.589
		c-1.586-1.69-3.212-3.366-4.605-5.21c-2.509-3.32-6.229-4.867-9.602-7.138c-1.131,1.658-2.37,3.046-2.568,4.964
		c-0.673,6.52-1.286,13.046-1.998,19.561c-0.16,1.467,0.189,2.563,1.164,3.688c3.402,3.929,6.788,7.878,9.984,11.974
		C608.11,367.753,609.116,368.542,610.912,368.476z M298.203,3.085c-2.097,0-3.953-0.248-5.721,0.045
		c-5.82,0.968-11.62,2.075-17.404,3.247c-2.913,0.59-5.747,3.762-5.964,6.427c-0.338,4.139-0.657,8.28-0.938,12.424
		c-0.158,2.34,0.475,2.846,2.813,2.401c3.999-0.761,8-1.511,11.996-2.287c3.195-0.621,6.384-1.273,9.583-1.913
		C294.468,16.567,296.317,9.894,298.203,3.085z M616.056,334.751c0.967-0.789,1.616-1.388,2.333-1.887
		c0.875-0.608,1.159-1.386,1.155-2.44c-0.032-8.151-0.038-16.303,0.005-24.455c0.006-1.098-0.415-1.756-1.257-2.368
		c-2.393-1.737-4.735-3.541-7.1-5.316c-1.469-1.104-2.913-2.245-4.419-3.296c-1.749-1.22-2.743-0.928-3.887,0.854
		c-0.979,1.528-1.556,3.073-1.275,4.948c0.188,1.251,0.057,2.551,0.06,3.829c0.008,3.674-0.114,7.354,0.057,11.02
		c0.127,2.721,0.618,5.586,2.514,7.597C607.959,327.181,611.991,330.826,616.056,334.751z M134.456,498.033
		c0.209,0.323,0.417,0.661,0.641,0.987c3.267,4.745,7.721,8.288,12.126,11.862c2.857,2.317,6.053,3.585,9.812,2.376
		c0.374-0.12,0.79-0.119,1.188-0.154c5.441-0.483,10.23-2.888,15.07-4.914c0.051-1.728-0.728-2.69-1.97-3.492
		c-1.271-0.821-2.415-1.841-3.615-2.771c-2.971-2.301-5.893-4.668-8.927-6.881c-2.649-1.933-5.688-2.755-8.983-2.936
		c-3.609-0.198-6.951,0.669-10.31,1.805C137.345,494.64,135.601,495.704,134.456,498.033z M583.997,431.928
		c0.643-1.329,1.341-2.587,1.874-3.911c2.981-7.404,5.929-14.822,8.864-22.246c0.227-0.571,0.536-1.31,0.355-1.806
		c-0.706-1.939-1.302-4.021-2.476-5.665c-2.287-3.204-5.535-5.728-6.525-9.871c-1.449,0.441-2.655,0.809-3.387,1.032
		c-1.574,3.621-2.962,6.83-4.364,10.032c-0.929,2.119-1.907,4.218-2.813,6.347c-1.627,3.819-1.368,7.763,0.063,11.457
		c1.755,4.532,4.036,8.859,6.079,13.28C582.07,431.452,582.662,431.995,583.997,431.928z M51.135,340.882
		c-0.719,1.582-0.68,2.898-0.36,4.24c1.556,6.521,3.113,13.042,4.661,19.565c0.431,1.816,1.203,3.271,3.283,3.616
		c0.697,0.117,1.354,0.473,2.033,0.706c5.201,1.782,10.403,3.562,15.544,5.32c1.89-1.858,1.84-1.847,1.518-3.249
		c-0.929-4.042-1.809-8.096-2.721-12.141c-0.14-0.62-0.29-1.248-0.533-1.831c-2.163-5.189-2.17-5.188-6.786-8.605
		c-0.385-0.285-0.743-0.619-1.159-0.848c-0.476-0.263-0.992-0.461-1.509-0.637c-0.97-0.33-1.996-0.526-2.92-0.949
		C58.558,344.412,54.961,342.687,51.135,340.882z M87.331,139.167c-2.492,3.982-4.886,7.751-7.213,11.562
		c-0.746,1.221-1.381,2.522-1.947,3.838c-0.988,2.298-1.548,4.713-1.32,7.227c0.076,0.837,0.316,1.757,0.774,2.444
		c2.743,4.112,5.569,8.168,8.372,12.24c1.113,1.617,3.31,1.715,4.267,0.019c1.679-2.979,3.437-5.964,4.662-9.139
		c3.621-9.381,2.476-18.295-3.163-26.649c-0.749-1.108-1.532-1.755-2.903-1.552C88.395,139.226,87.91,139.167,87.331,139.167z
		 M598.213,230.348c-1.296,1.797-2.153,3.436-1.461,5.656c0.469,1.501,0.464,3.154,0.641,4.743c0.426,3.813,0.801,7.635,2.326,11.22
		c0.503,1.183,1.055,2.266,2.262,2.979c4.544,2.68,9.024,5.467,13.562,8.157c2.313,1.371,4.274,0.485,4.768-2.126
		c0.469-2.48,0.258-4.975-0.486-7.356c-1.487-4.761-2.018-9.691-2.733-14.586c-0.2-1.364-0.676-2.09-2.017-2.553
		c-4.453-1.54-8.856-3.224-13.281-4.847C600.606,231.198,599.415,230.779,598.213,230.348z M202.541,524.231
		c-0.737-0.587-1.219-1.111-1.813-1.418c-7.729-3.996-15.472-7.965-23.223-11.919c-0.471-0.24-1.136-0.539-1.547-0.383
		c-2.006,0.766-4.064,1.492-5.899,2.579c-2.81,1.663-5.455,3.603-8.158,5.442c-0.415,0.282-0.765,0.66-1.257,1.091
		c5.928,3.879,11.689,7.61,17.405,11.41c2.358,1.567,4.92,2.289,7.65,1.713c2.954-0.623,5.909-1.389,8.729-2.449
		C197.517,529.136,200.092,527.093,202.541,524.231z M432.395,540.43c-6.385,1.947-12.961,3.897-19.492,5.989
		c-1.328,0.426-2.886,1.099-3.642,2.155c-1.882,2.632-3.992,5.181-4.65,8.549c-0.658,3.366-1.575,6.683-2.363,10.023
		c-0.103,0.438-0.111,0.897-0.158,1.296c0.227,0.098,0.303,0.162,0.356,0.148c8.023-2.13,16.051-4.248,24.059-6.437
		c0.612-0.167,1.217-0.734,1.61-1.272c1.538-2.106,2.371-4.515,2.688-7.092C431.353,549.298,431.874,544.803,432.395,540.43z
		 M382.481,543.256c1.951,0.101,3.367,0.193,4.784,0.243c2.799,0.098,5.563,0.28,8.145,1.586c0.578,0.293,1.41,0.315,2.069,0.183
		c5.625-1.134,11.243-2.303,16.846-3.54c0.956-0.212,1.827-0.804,2.727-1.215c-0.657-4.272-2.203-7.501-6.426-8.916
		c-2.107-0.707-4.091-1.78-6.135-2.678c-1.648-0.724-3.325-0.906-5.131-0.573c-2.841,0.523-5.219,1.921-7.462,3.608
		C388.018,534.875,385.14,538.627,382.481,543.256z M251.123,544.948c-2.367-0.843-4.324-2.17-6.728-2.194
		c-2.796-0.028-5.595-0.059-8.389,0.023c-0.831,0.024-1.756,0.255-2.458,0.685c-2.724,1.667-5.421,3.388-8.037,5.22
		c-1.497,1.048-2.854,2.311-4.209,3.549c-0.999,0.913-0.823,2.037,0.357,2.674c0.487,0.263,1.039,0.408,1.563,0.6
		c5.174,1.89,10.363,3.735,15.512,5.691c1.64,0.624,3.195,0.891,5.046,0.094C245.558,555.741,247.647,550.149,251.123,544.948z
		 M305.761,606.256c-0.195,0.266-0.391,0.436-0.468,0.648c-1.917,5.241-3.833,10.483-5.709,15.74
		c-0.207,0.581-0.254,1.252-0.229,1.876c0.047,1.163,0.575,1.578,1.709,1.319c0.929-0.211,1.825-0.568,2.735-0.865
		c7.737-2.523,15.48-5.034,22.542-9.209c1.347-0.796,2.649-1.665,4.208-2.649C322.987,607.326,314.603,605.932,305.761,606.256z
		 M383.919,582.804c-2.397-0.413-4.264-0.837-6.154-1.042c-6.699-0.728-13.186,0.426-19.631,2.188
		c-3.434,0.939-5.854,3.33-8.959,5.184c6.293,3.657,12.797,6.222,18.016,10.85C373.787,595.262,378.872,589.489,383.919,582.804z
		 M293.063,581.912c-3.391,0.706-6.494,1.329-9.586,2.003c-3.19,0.696-6.442,1.163-9.428,2.628c-2.572,1.263-3.228,2.435-2.771,5.26
		c0.064,0.395,0.118,0.791,0.154,1.188c0.137,1.513,0.813,2.682,2.011,3.649c1.739,1.406,3.468,2.845,5.045,4.424
		c1.402,1.403,2.912,1.969,4.907,1.866c3.084-0.159,3.784-0.533,4.829-3.474c0.134-0.376,0.24-0.762,0.349-1.146
		c1.323-4.687,2.649-9.372,3.963-14.062C292.722,583.589,292.841,582.911,293.063,581.912z M425.491,590.145
		c0.059-0.368,0.161-0.749,0.174-1.134c0.228-6.701,0.463-13.403,0.65-20.106c0.051-1.823-1.634-3.065-3.578-2.695
		c-3.762,0.715-7.519,1.456-11.271,2.214c-0.524,0.105-1.017,0.364-1.555,0.563c-0.029,0.649-0.011,1.209-0.087,1.755
		c-0.271,1.939,0.406,3.373,2.071,4.447c1.607,1.037,3.112,2.231,4.682,3.33c3.383,2.368,6.061,5.214,6.488,9.572
		C423.207,589.53,423.929,590.231,425.491,590.145z M370.043,553.556c-0.398,0.29-0.812,0.537-1.162,0.853
		c-2.812,2.532-6.054,4.416-9.343,6.226c-0.689,0.379-1.446,0.641-2.18,0.936c-1.313,0.528-2.701,0.916-3.933,1.591
		c-1.817,0.994-3.532,2.176-5.274,3.305c-0.482,0.313-0.904,0.722-1.524,1.224c3.629,1.378,6.975,2.659,10.332,3.909
		c0.36,0.134,0.787,0.106,1.185,0.124c5.847,0.26,11.123-3.861,12.302-9.612c0.401-1.954,0.726-3.925,1.193-5.861
		C371.959,554.918,371.578,554.083,370.043,553.556z M248.271,608.107c-0.769,3.35-1.497,6.434-2.162,9.532
		c-0.091,0.426,0.024,0.984,0.239,1.373c1.879,3.398,2.226,7.112,2.336,10.884c0.014,0.479-0.054,1.041,0.169,1.412
		c0.341,0.567,0.818,1.246,1.387,1.439c1.097,0.374,2.119,0.18,2.912-0.956c1.829-2.62,3.783-5.153,5.682-7.726
		c1.732-2.346,1.555-4.693-0.55-6.711c-2.828-2.711-5.677-5.398-8.527-8.084C249.376,608.912,248.931,608.62,248.271,608.107z
		 M459.751,637.915c-5.395,5.506-10.262,11.392-15.42,17.009c0.634,1.729,1.186,3.305,1.788,4.862
		c0.87,2.252,1.875,2.434,3.582,0.625c5.252-5.567,10.491-11.146,15.726-16.73c0.351-0.374,0.619-0.824,1.008-1.351
		C464.156,640.825,462.037,639.425,459.751,637.915z M386.427,626.791c0.697,0.17,0.995,0.324,1.278,0.3
		c5.424-0.464,10.673-1.751,15.771-3.605c0.765-0.278,1.466-1.176,1.842-1.957c0.391-0.814,0.352-1.835,0.517-2.868
		c-2.212-1.268-4.382-2.431-6.467-3.729c-2.698-1.68-4.535-0.928-6.188,1.341C390.801,619.542,388.785,623.076,386.427,626.791z
		 M420.373,594.148c1.24-2.259,0.762-4.274-0.595-6.121c-1.503-2.047-3.031-4.086-4.694-6.002c-1.476-1.699-3.353-2.916-5.468-3.758
		c-1.128-0.449-2.147-0.52-3.207,0.501c0,2.435,0.075,4.983-0.03,7.524c-0.055,1.321,0.392,2.014,1.604,2.527
		c3.665,1.556,7.28,3.228,10.921,4.838C419.395,593.875,419.925,594,420.373,594.148z M310.207,549.44
		c0.958,1.2,1.895,1.265,2.865,1.043c4.271-0.974,8.562-1.872,12.791-3.004c2.121-0.567,4.125-1.574,6.155-2.373
		c-0.968-3.392-1.029-3.62-3.892-3.731c-3.412-0.134-6.838,0.026-10.256,0.128c-0.493,0.015-1.118,0.286-1.44,0.651
		C314.331,544.536,312.298,546.977,310.207,549.44z M427.601,630.061c-0.922,2.402-0.924,4.28,0.889,5.978
		c1.099,1.028,2.015,2.276,2.891,3.513c0.765,1.077,1.657,1.493,2.855,0.925c0.759-0.36,1.587-0.742,2.139-1.341
		c1.948-2.115,3.798-4.322,5.667-6.51c0.324-0.381,0.56-0.838,1.019-1.537C437.729,630.735,432.729,630.402,427.601,630.061z
		 M457.033,633.525c-5.736,6.161-11.269,12.104-16.824,18.073c0.565,0.873,0.983,1.519,1.194,1.843
		c5.976-5.802,11.907-11.562,17.969-17.447C458.643,635.224,457.944,634.487,457.033,633.525z M452.392,629.421
		c-3.228,3.668-6.178,7.132-9.26,10.475c-1.494,1.621-3.624,2.268-5.753,2.901c3.694-3.969,7.39-7.938,11.085-11.907
		c-0.113-0.123-0.227-0.246-0.341-0.369c-1.909,1.147-4.118,1.99-5.664,3.509c-2.952,2.896-5.525,6.179-8.209,9.247
		c0.87,1.498,1.642,2.824,2.533,4.359c5.777-6.028,11.333-11.825,16.729-17.455c-0.775-0.951-1.361-1.671-2.028-2.489
		c-0.472,0.501-0.834,0.885-1.326,1.407C450.969,629.216,451.575,629.303,452.392,629.421z M439.261,650.691
		c5.763-5.883,11.426-11.666,17.241-17.603c-0.944-0.877-1.717-1.594-2.595-2.409c-5.555,6.121-10.939,12.055-16.368,18.036
		C438.189,649.462,438.649,649.99,439.261,650.691z"/>
	<path fill-rule="evenodd" clip-rule="evenodd" fill="#1A4B7E" d="M341.047,0.007c2.595,0.315,5.184,0.694,7.785,0.932
		c5.405,0.494,10.816,0.909,16.225,1.366c0.462,0.04,0.917,0.149,1.571,0.259c-2.06,5.217-3.483,10.564-7.186,14.853
		c-2.478,2.871-5.399,4.619-9.366,4.357c-3.663-0.243-7.338-0.327-11.009-0.397c-1.817-0.035-3.638,0.14-5.457,0.172
		c-0.535,0.009-1.137-0.019-1.598-0.25c-1.055-0.531-2.04-1.197-3.158-1.87c0.287-0.954,0.586-1.769,0.772-2.608
		c0.324-1.463,0.574-2.944,0.866-4.415c0.123-0.618,0.218-1.25,0.423-1.843c0.287-0.827,0.749-1.599,0.991-2.436
		c1.023-3.538,3.173-6.185,6.26-8.12C339.127,0.007,340.087,0.007,341.047,0.007z"/>
	<path fill-rule="evenodd" clip-rule="evenodd" fill="#1A4B7E" d="M44.407,275.527c0.672-0.768,1.345-1.535,2.184-2.493
		c0.691,0.265,1.496,0.554,2.286,0.878c3.102,1.274,6.176,2.62,9.308,3.815c1.485,0.567,2.594,1.478,3.576,2.679
		c3.26,3.985,4.749,8.64,5.199,13.671c0.364,4.057,0.595,8.125,0.934,12.184c0.072,0.859-0.048,1.531-0.705,2.149
		c-0.81,0.762-1.527,1.623-2.344,2.504c-0.699-0.311-1.285-0.521-1.824-0.818c-4.758-2.618-9.487-5.289-14.272-7.856
		c-1.263-0.677-1.829-1.491-1.937-2.955c-0.438-5.974-0.981-11.94-1.561-17.902c-0.113-1.168-0.554-2.305-0.844-3.456
		C44.407,277.127,44.407,276.327,44.407,275.527z"/>
	<path fill-rule="evenodd" clip-rule="evenodd" fill="#1A4B7E" d="M621.848,290.887c-0.156,1.247-0.356,2.49-0.454,3.741
		c-0.073,0.947-0.014,1.904-0.014,2.894c-2.288,0.606-4.144,0.415-5.985-1.003c-3.547-2.731-7.224-5.296-10.882-7.877
		c-0.919-0.648-1.381-1.359-1.481-2.525c-0.637-7.408-1.33-14.812-2.076-22.209c-0.165-1.641,0.775-2.663,1.615-3.946
		c0.64,0.28,1.227,0.494,1.773,0.784c4.094,2.175,8.139,4.449,12.288,6.515c2.022,1.007,3.001,2.456,3.211,4.641
		c0.489,5.09,1.043,10.175,1.595,15.259c0.049,0.452,0.27,0.886,0.41,1.328C621.848,289.288,621.848,290.087,621.848,290.887z"/>
	<path fill-rule="evenodd" clip-rule="evenodd" fill="#1A4B7E" d="M228.346,653.347c-0.135,2.418-0.198,2.468-2.601,2.099
		c-0.344,1.187-0.626,2.378-1.033,3.525c-0.867,2.438-1.799,4.853-2.704,7.277c-0.48,0-0.961,0-1.44,0
		c-1.154-1.084-2.335-2.141-3.457-3.256c-4.349-4.325-8.692-8.655-12.999-13.022c-0.524-0.531-0.971-1.247-1.176-1.957
		c-0.257-0.888,0.029-1.673,1.011-2.15c1.501-0.731,2.918-1.637,4.423-2.357c0.617-0.295,1.366-0.36,2.064-0.424
		c0.771-0.069,1.553-0.016,2.503-0.016c-0.069-1.275-0.124-2.284-0.196-3.616c2.806,2.38,5.414,4.591,8.014,6.798
		c0.985,1.055,1.979,2.113,2.974,3.173c1.007,0.776,2.015,1.553,3.021,2.329C227.281,652.283,227.813,652.815,228.346,653.347z"/>
	<path fill-rule="evenodd" clip-rule="evenodd" fill="#1A4B7E" d="M502.123,474.09c-5.88,1.529-11.351,3.02-16.854,4.371
		c-19.648,4.825-39.482,8.71-59.495,11.7c-15.108,2.257-30.272,3.991-45.491,5.312c-16.184,1.405-32.39,2.317-48.631,2.412
		c-11.516,0.066-23.04,0.112-34.548-0.249c-13.025-0.409-26.029-1.314-39.009-2.619c-17.04-1.714-33.945-4.228-50.69-7.792
		c-12.985-2.764-25.809-6.139-38.331-10.592c-0.731-0.26-1.447-0.566-2.408-0.944c12.61-21.688,25.125-43.212,37.79-64.994
		c-0.688-0.114-1.043-0.211-1.402-0.228c-6.791-0.313-13.586-0.568-20.372-0.96c-1.696-0.099-2.768,0.396-3.816,1.754
		c-13.891,17.975-27.841,35.904-41.778,53.843c-0.485,0.625-1.003,1.226-1.709,2.085c-2.546-3.871-4.981-7.574-7.571-11.514
		c12.5-15.95,25.008-31.912,37.765-48.19c-1.691-0.334-3.052-0.641-4.425-0.868c-14.837-2.459-29.551-5.46-43.841-10.241
		c-3.921-1.312-7.762-2.86-11.845-4.376c0.536-0.935,0.903-1.627,1.318-2.289c25.198-40.174,50.407-80.341,75.575-120.534
		c0.86-1.374,1.764-1.95,3.425-1.929c7.358,0.095,14.72,0.042,22.079,0.041c0.873,0,1.746,0,2.572,0
		c0.562-1.823,0.764-33.476,0.235-38.37c-0.726,0.846-1.278,1.438-1.772,2.076c-12.208,15.737-24.411,31.479-36.614,47.22
		c-27.442,35.403-54.883,70.809-82.336,106.205c-0.739,0.952-1.271,2.386-3.254,1.658c-0.462-1.662-0.961-3.496-1.48-5.324
		c-0.324-1.136,0.499-1.785,1.063-2.524c6.982-9.161,13.977-18.313,20.967-27.467c33.063-43.291,66.124-86.582,99.184-129.874
		c0.53-0.694,1.037-1.405,1.623-2.201c-7.222-8.97-14.387-17.871-21.77-27.04c2.359-1.859,4.64-3.657,7.102-5.597
		c6.598,8.556,13.078,16.96,19.801,25.677c19.097-24.641,38.07-49.122,57.221-73.831c2.355,1.313,4.63,2.579,6.805,3.791
		c0.054,0.247,0.077,0.321,0.083,0.396c0.007,0.078,0.016,0.166-0.014,0.234c-0.061,0.146-0.127,0.297-0.224,0.421
		c-19.42,25.122-38.844,50.242-58.412,75.551c15.663,19.819,31.314,39.622,47.17,59.685c20.206-25.929,40.241-51.639,60.422-77.536
		c-11.444-14.322-22.856-28.603-34.471-43.137c2.902-2.522,5.705-4.957,8.683-7.544c10.951,13.777,21.782,27.405,32.827,41.301
		c35.154-46.949,71.453-92.738,107.719-138.777c3.727,2.262,7.322,4.443,11.213,6.805c-37.026,47.506-73.926,94.85-110.95,142.354
		c65.776,83.706,131.496,167.337,197.342,251.131c-2.072,3.356-4.109,6.655-6.311,10.221
		c-64.943-82.664-129.693-165.083-194.444-247.501c-0.129,0.062-0.258,0.125-0.387,0.187c0,20.424,0,40.848,0,61.609
		c12.825,0.045,25.487-0.403,38.323-0.595C417.81,342.236,459.843,407.97,502.123,474.09z M328.91,218.293
		c-0.142-0.077-0.284-0.154-0.426-0.231c-18.068,23.751-36.137,47.502-54.241,71.302c1.067,1.201,1.95,2.194,2.972,3.342
		c0.729-0.856,1.303-1.493,1.835-2.163c2.937-3.69,5.909-7.352,8.765-11.104c0.916-1.204,1.891-1.665,3.407-1.691
		c11.905-0.207,23.81-0.506,35.713-0.784c0.617-0.014,1.233-0.093,1.976-0.152C328.91,257.209,328.91,237.751,328.91,218.293z
		 M216.692,230.367c-0.157,0.06-0.315,0.12-0.473,0.18c-0.127,12.167-0.254,24.333-0.384,36.782c1.145,0,2,0,2.855,0
		c6.477,0,12.955,0.062,19.43-0.042c1.672-0.027,2.57,0.555,3.399,1.951c4.002,6.733,8.104,13.407,12.177,20.098
		c0.439,0.722,0.921,1.419,1.51,2.322c1.894-2.129,3.573-4.016,5.323-5.982C245.828,267.125,231.26,248.746,216.692,230.367z"/>
	<path fill-rule="evenodd" clip-rule="evenodd" fill="#1A4B7E" d="M432.627,90.661c6.85-9.485,13.761-19.057,20.773-28.769
		c6.953,4.763,11.896,10.768,14.341,18.739c2.027,6.607,2.156,13.386,1.938,20.189c-0.235,7.348-0.756,14.69-0.871,22.039
		c-0.124,7.915,1.224,15.597,4.737,22.789c0.491,1.003,1.052,1.973,1.611,2.94c0.404,0.698,0.258,1.2-0.614,1.676
		c-7.013-6.405-14.917-11.959-20.568-19.88c-1.691-2.372-2.882-4.953-3.535-7.801c-2.729-11.893-8.12-22.318-17.063-30.769
		c-0.174-0.164-0.34-0.341-0.481-0.534C432.806,91.16,432.769,90.999,432.627,90.661z"/>
	<path fill-rule="evenodd" clip-rule="evenodd" fill="#1A4B7E" d="M345.274,561.797c0.273-0.931,0.467-1.691,0.72-2.431
		c2.516-7.329,5.075-14.643,7.534-21.99c0.486-1.455,1.282-2.447,2.544-3.289c7.084-4.727,14.521-8.702,22.754-11.055
		c5.446-1.557,10.921-2.447,16.519-0.803c0.841,0.248,1.658,0.576,2.494,0.844c1.4,0.447,2.357,1.299,2.669,3.034
		c-0.556,0.145-1.122,0.373-1.706,0.429c-4.281,0.409-7.965,2.217-11.332,4.781c-5.166,3.934-9.187,8.866-12.462,14.426
		c-0.633,1.075-1.399,1.865-2.477,2.494c-7.041,4.109-14.087,8.211-21.052,12.447C349.579,561.841,347.715,562.284,345.274,561.797z
		"/>
	<path fill-rule="evenodd" clip-rule="evenodd" fill="#1A4B7E" d="M248.809,565.16c0.207,0.054,0.405,0.043,0.491,0.136
		c3.116,3.349,6.829,5.999,10.304,8.933c1.754,1.481,3.316,3.244,4.718,5.07c0.896,1.168,1.434,2.647,1.966,4.051
		c2.097,5.525,4.072,11.097,6.228,16.6c0.449,1.146,1.492,2.051,2.219,3.098c1.041,1.499,0.612,3.276-1.127,3.881
		c-4.613,1.604-9.296,3.015-14.261,2.779c-0.977-0.046-2.016-0.439-2.877-0.933c-2.843-1.626-4.735-3.954-6.064-7.073
		c-2.561-6.009-4.422-12.157-5.116-18.634c-0.652-6.081,0.054-11.966,3.109-17.406C248.506,565.468,248.681,565.313,248.809,565.16z
		"/>
	<path fill-rule="evenodd" clip-rule="evenodd" fill="#1A4B7E" d="M290.218,601.566c0.604-5.69,1.945-10.95,5.887-15.233
		c1.399-1.521,2.908-2.621,5.109-2.731c4.303-0.215,8.594-0.804,12.895-0.863c5.98-0.082,11.722,1.35,17.264,3.565
		c0.297,0.119,0.594,0.245,0.867,0.407c0.125,0.073,0.193,0.241,0.362,0.466c-0.62,2.343-1.499,4.55-3.47,6.291
		c-2.034,1.797-3.819,3.871-5.805,5.727c-2.977,2.783-6.406,4.759-10.503,5.376c-0.704,0.105-1.501,0.271-2.135,0.057
		c-3.706-1.252-7.577-0.921-11.368-1.335c-2.763-0.303-5.614-0.084-8.237-1.292C290.871,601.901,290.665,601.79,290.218,601.566z"/>
	<path fill-rule="evenodd" clip-rule="evenodd" fill="#1A4B7E" d="M323.879,605.082c0.429-0.639,0.751-1.182,1.133-1.679
		c2.34-3.044,4.745-6.039,7.017-9.133c0.906-1.235,2.001-1.994,3.431-2.42c1.224-0.364,2.461-0.736,3.619-1.264
		c2.18-0.993,4.327-0.818,6.545-0.177c4.035,1.167,7.654,3.201,11.274,5.252c3.197,1.811,6.404,3.605,9.643,5.342
		c2.25,1.207,2.396,3.6,0.414,5.285c-3.828,3.257-8.196,5.577-12.82,7.383c-2.675,1.045-5.47,1.435-8.36,0.234
		c-6.421-2.666-12.911-5.164-19.37-7.738C325.597,605.846,324.807,605.482,323.879,605.082z"/>
	<path fill-rule="evenodd" clip-rule="evenodd" fill="#1A4B7E" d="M305.07,574.537c0.591-0.995,0.936-1.615,1.317-2.211
		c3.269-5.109,6.568-10.199,9.801-15.331c0.791-1.257,1.754-2.174,3.085-2.858c6.103-3.138,12.168-6.346,18.24-9.54
		c1.763-0.928,3.505-1.896,5.449-2.949c0.816,0.45,1.774,0.978,2.85,1.569c-0.817,3.588-1.604,7.073-2.406,10.556
		c-0.572,2.486-1.261,4.951-1.712,7.459c-0.273,1.521-1.017,2.625-2.084,3.642c-4.061,3.865-8.975,6.001-14.37,7.186
		c-4.982,1.093-9.939,2.324-14.959,3.205C308.746,575.532,307.042,574.841,305.07,574.537z"/>
	<path fill-rule="evenodd" clip-rule="evenodd" fill="#1A4B7E" d="M312.282,555.23c-0.812,1.228-1.592,2.425-2.392,3.609
		c-2.814,4.171-5.662,8.32-8.437,12.519c-0.669,1.014-1.465,1.534-2.656,1.779c-2.446,0.503-4.875,0.702-7.369,0.456
		c-4.212-0.414-8.428-0.842-12.653-1.042c-2.955-0.141-5.333-1.393-7.7-3.16c-0.356-2.332,0.539-4.484,1.489-6.569
		c1.482-3.251,3.723-5.942,6.554-8.132c2.232-1.727,4.888-2.256,7.583-2.693c3.674-0.598,7.333-0.226,10.988,0.135
		c3.972,0.391,7.931,0.911,11.907,1.233C310.938,553.473,311.511,554.292,312.282,555.23z"/>
	<path fill-rule="evenodd" clip-rule="evenodd" fill="#1A4B7E" d="M73.056,167.395c0.332,0.547,0.589,1.162,1.008,1.632
		c2.874,3.215,5.762,6.418,8.691,9.583c0.851,0.919,1.295,1.93,1.54,3.152c0.837,4.181,0.389,8.258-0.732,12.312
		c-1.456,5.266-3.941,10.097-6.316,14.975c-0.803,1.65-1.602,3.305-2.475,4.917c-0.816,1.508-1.885,1.502-2.845,0.051
		c-0.132-0.199-0.248-0.411-0.355-0.624c-2.272-4.53-5.316-8.505-8.66-12.292c-2.025-2.293-2.664-4.802-1.3-7.893
		c3.706-8.391,7.172-16.888,10.732-25.342C72.581,167.709,72.818,167.552,73.056,167.395z"/>
	<path fill-rule="evenodd" clip-rule="evenodd" fill="#1A4B7E" d="M482.604,62.356c4.998-0.048,9.269-2.211,13.522-4.449
		c1.552-0.816,3.154-1.538,4.745-2.276c1.175-0.545,2.195-0.386,3.351,0.345c4.127,2.609,8.106,5.375,11.676,8.74
		c3.251,3.063,6.66,5.959,10.034,8.96c-0.546,1.966-1.518,3.296-3.558,3.813c-1.695,0.429-3.37,1.023-4.97,1.732
		c-3.99,1.769-8.228,1.828-12.453,1.887c-0.869,0.012-1.835-0.459-2.605-0.946c-6.277-3.972-12.491-8.045-18.788-11.985
		c-2.094-1.31-2.77-2.418-1.467-4.91C482.2,63.06,482.321,62.858,482.604,62.356z"/>
	<path fill-rule="evenodd" clip-rule="evenodd" fill="#1A4B7E" d="M402.987,9.83c-1.344,3.009-2.481,5.823-3.848,8.522
		c-0.93,1.837-2.091,3.576-3.31,5.241c-1.11,1.518-2.718,2.451-4.537,2.958c-0.452,0.126-0.956,0.274-1.399,0.197
		c-6.353-1.11-12.696-2.271-19.048-3.39c-3.126-0.551-6.264-1.043-9.641-1.603c0.349-0.754,0.562-1.317,0.854-1.835
		c2.401-4.236,4.832-8.456,7.224-12.697c1.224-2.17,2.979-3.203,5.507-2.879c7.836,1.004,15.675,1.989,23.515,2.966
		C400.161,7.541,401.431,8.773,402.987,9.83z"/>
	<path fill-rule="evenodd" clip-rule="evenodd" fill="#1A4B7E" d="M401.956,610.524c5.276-1.662,10.043-3.445,15.113-4.208
		c3.234-0.487,6.473-0.986,9.662-1.692c1.482-0.328,2.335,0.102,3.31,1.132c4.719,4.986,9.508,9.907,14.285,14.838
		c1.611,1.663,3.286,3.264,4.885,4.938c1.209,1.266,0.909,2.484-0.759,3.07c-0.663,0.232-1.409,0.337-2.113,0.321
		c-1.434-0.031-2.924,0.037-4.285-0.328c-4.412-1.181-8.859-0.97-13.313-0.588c-2.913,0.25-5.414-0.355-7.756-2.275
		c-5.862-4.807-11.867-9.437-17.813-14.142C402.864,611.348,402.581,611.075,401.956,610.524z"/>
	<path fill-rule="evenodd" clip-rule="evenodd" fill="#1A4B7E" d="M552.546,99.703c-0.547,2.504-2.021,3.323-4.313,3.508
		c-5.097,0.412-10.179,1.035-15.254,1.674c-1.207,0.152-2.124-0.021-3.093-0.774c-4.862-3.779-9.84-7.411-14.636-11.27
		c-2.164-1.742-4.145-3.802-4.34-6.877c-0.015-0.228,0.063-0.461,0.124-0.864c4.198-1.582,8.439-3.208,12.708-4.759
		c0.646-0.235,1.42-0.192,2.13-0.161c2.716,0.12,5.429,0.315,8.145,0.419c0.873,0.034,1.481,0.372,2.063,0.995
		c5.018,5.381,10.067,10.732,15.078,16.118C551.743,98.341,552.153,99.132,552.546,99.703z"/>
	<path fill-rule="evenodd" clip-rule="evenodd" fill="#1A4B7E" d="M204.746,30.323c0.522,0.299,1.066,0.627,1.626,0.927
		c0.783,0.418,1.098,1.03,1.105,1.941c0.035,4.154,0.146,8.307,0.188,12.461c0.007,0.707-0.063,1.467-0.316,2.116
		c-1.63,4.163-3.827,7.851-7.997,10.053c-3.311,1.749-6.528,3.629-9.563,5.902c-2.034,1.523-4.768,2.149-7.241,3.028
		c-1.06,0.377-1.679-0.491-1.769-1.428c-0.36-3.731-0.69-7.468-0.897-11.21c-0.078-1.423,0.142-2.875,0.348-4.296
		c0.111-0.766,0.378-1.551,0.753-2.229c1.733-3.141,4.206-5.619,7.149-7.627c1.451-0.99,2.943-1.928,4.468-2.801
		C196.553,34.9,200.532,32.69,204.746,30.323z"/>
	<path fill-rule="evenodd" clip-rule="evenodd" fill="#1A4B7E" d="M64.659,278.23c-1.298-0.577-2.446-0.917-3.407-1.544
		c-3.476-2.27-6.889-4.636-10.325-6.965c-1.653-1.12-2.715-2.639-3.25-4.574c-1.118-4.043-1.654-8.173-1.225-12.327
		c0.516-4.995,1.355-9.957,2.065-14.932c0.044-0.308,0.188-0.601,0.337-1.065c0.692,0.351,1.325,0.632,1.919,0.979
		c3.793,2.213,7.531,4.523,11.376,6.641c4.1,2.258,5.899,5.903,5.756,10.268c-0.212,6.457-0.87,12.903-1.518,19.336
		C66.254,275.384,65.338,276.645,64.659,278.23z"/>
	<path fill-rule="evenodd" clip-rule="evenodd" fill="#1A4B7E" d="M187.186,538.111c-0.131-2.036,0.786-3.092,2.558-3.869
		c3.582-1.572,7.098-3.313,10.563-5.131c2.513-1.316,5.154-2.134,7.916-2.602c0.652-0.11,1.448-0.038,2.037,0.244
		c6.271,3,12.522,6.041,18.76,9.113c2.205,1.086,2.533,2.469,1.346,4.641c-0.703,1.285-1.578,2.188-2.95,2.92
		c-1.804,0.962-3.263,2.551-4.941,3.772c-3.236,2.354-6.925,3.106-10.857,2.838c-0.379-0.026-0.76-0.23-1.114-0.402
		c-7.546-3.668-15.089-7.342-22.628-11.023C187.602,538.479,187.375,538.251,187.186,538.111z"/>
	<path fill-rule="evenodd" clip-rule="evenodd" fill="#1A4B7E" d="M555.22,443.187c1.938,4.945,3.896,9.913,5.834,14.889
		c1.259,3.231,0.815,6.279-1.146,9.094c-1.688,2.421-3.437,4.801-5.187,7.179c-2.365,3.213-4.763,6.402-7.135,9.61
		c-1.032,1.395-3.334,2.144-4.794,1.438c-0.377-0.182-0.704-0.646-0.868-1.057c-0.593-1.479-1.148-2.976-1.641-4.491
		c-1.206-3.715-2.326-7.46-3.58-11.159c-0.337-0.994-0.394-1.822,0.148-2.72c0.699-1.159,1.288-2.39,2.032-3.518
		c3.736-5.661,7.579-11.254,11.227-16.971C551.298,443.623,552.685,442.789,555.22,443.187z"/>
	<path fill-rule="evenodd" clip-rule="evenodd" fill="#1A4B7E" d="M295.921,196.585c-12.149-10.175-21.132-22.971-30.136-36.005
		c3.782-5.422,7.555-10.83,11.431-16.386c3.763,2.303,6.339,5.348,8.27,9.005c2.544,4.82,3.535,10.07,4.201,15.395
		c0.515,4.119,0.904,8.254,1.333,12.383C291.594,186.49,292.595,191.864,295.921,196.585z"/>
	<path fill-rule="evenodd" clip-rule="evenodd" fill="#1A4B7E" d="M613.324,228.968c-6.815-0.859-13.196-2.162-18.289-6.783
		c-0.903-0.82-1.65-1.96-2.108-3.098c-1.729-4.287-3.567-8.534-4.443-13.132c-0.337-1.773-1.297-3.425-1.944-5.143
		c-0.862-2.289-0.731-4.375,1.336-6.053c3.567,0.374,7.151,0.641,10.696,1.166c1.712,0.253,3.459,0.778,4.999,1.558
		c2.607,1.32,4.684,3.162,5.486,6.259c1.16,4.475,2.775,8.833,3.873,13.321C613.883,220.959,613.243,224.971,613.324,228.968z"/>
	<path fill-rule="evenodd" clip-rule="evenodd" fill="#1A4B7E" d="M108.825,472.343c0.398-1.396,0.725-2.539,1.096-3.842
		c2.522-0.447,5.025-0.9,7.532-1.331c2.835-0.487,5.678-0.93,8.508-1.445c1.088-0.198,1.991-0.014,2.937,0.597
		c2.961,1.91,5.8,3.925,8.292,6.469c3.915,3.998,8.007,7.824,12.017,11.73c0.443,0.433,0.839,0.915,1.422,1.554
		c-1.922,0.689-3.653,1.245-5.333,1.927c-2.519,1.02-4.961,2.235-7.509,3.169c-2.977,1.091-5.906,1.368-9.033-0.054
		c-3.202-1.455-5.906-3.311-8.208-5.979c-3.236-3.753-6.706-7.305-10.072-10.945C109.934,473.609,109.416,473.006,108.825,472.343z"
		/>
	<path fill-rule="evenodd" clip-rule="evenodd" fill="#1A4B7E" d="M46.465,305.281c0.891,0.414,1.614,0.72,2.312,1.079
		c3.549,1.827,7.046,3.759,10.648,5.471c2.488,1.183,4.26,3.02,5.786,5.212c3.075,4.413,4.065,9.475,4.639,14.674
		c0.272,2.459,0.628,4.911,0.81,7.376c0.079,1.086-0.049,2.231-0.323,3.287c-0.314,1.207-0.942,1.431-2.195,1.105
		c-2.699-0.702-5.39-1.438-8.098-2.104c-3.692-0.908-6.717-2.913-9.273-5.645c-0.567-0.606-1.047-1.448-1.211-2.254
		c-1.227-6.015-2.509-12.025-3.47-18.084C45.569,312.122,45.66,308.752,46.465,305.281z"/>
	<path fill-rule="evenodd" clip-rule="evenodd" fill="#1A4B7E" d="M251.693,559.712c-0.029-3.776,0.864-6.751,2.256-9.571
		c1.603-3.247,3.602-6.195,6.451-8.54c2.344-1.929,4.571-4.003,6.802-6.066c1.029-0.953,2.142-1.596,3.542-1.848
		c1.49-0.268,2.939-0.763,4.427-1.057c1.604-0.317,2.69,0.671,2.42,2.235c-2.202,12.752-5.778,25.058-12.034,36.472
		c-1.254,2.288-3.132,2.504-5.004,0.65c-1.989-1.97-3.847-4.088-5.968-5.901C252.376,564.197,251.409,561.965,251.693,559.712z"/>
	<path fill-rule="evenodd" clip-rule="evenodd" fill="#1A4B7E" d="M372.623,602.648c0.355-1.215,0.457-2.276,0.945-3.113
		c3.683-6.318,9.104-10.627,15.853-13.285c2.777-1.095,5.578-1.089,8.4,0.115c5.361,2.288,10.9,4.176,15.845,7.37
		c2.832,1.83,5.39,3.958,7.855,6.579c-0.566,0.23-0.952,0.474-1.367,0.544c-9.139,1.557-18.277,3.116-27.428,4.603
		c-1.068,0.174-2.217,0.008-3.308-0.145c-4.749-0.663-9.492-1.373-14.234-2.085C374.485,603.126,373.802,602.919,372.623,602.648z"
		/>
	<path fill-rule="evenodd" clip-rule="evenodd" fill="#1A4B7E" d="M517.57,510.234c-0.745-3.568-1.437-6.828-2.104-10.092
		c-0.561-2.735-1.162-5.465-1.603-8.22c-0.141-0.88,0.004-1.895,0.312-2.741c0.849-2.337,2.123-4.401,3.896-6.225
		c3.282-3.377,6.341-6.971,9.61-10.361c1.642-1.702,3.542-3.155,5.448-4.829c1.331,1.763,1.722,3.555,2.229,5.258
		c1.024,3.438,2.075,6.886,2.791,10.396c0.44,2.157,0.342,4.437,0.348,6.661c0.002,0.562-0.452,1.173-0.811,1.681
		c-1.886,2.676-3.802,5.329-5.724,7.979c-0.325,0.448-0.658,0.938-1.1,1.248C526.557,504.012,522.227,507.002,517.57,510.234z"/>
	<path fill-rule="evenodd" clip-rule="evenodd" fill="#1A4B7E" d="M277.117,549.948c0.204-0.928,0.301-1.547,0.478-2.144
		c1.406-4.74,2.89-9.46,4.206-14.226c0.394-1.425,1.167-2.119,2.483-2.569c7.756-2.656,15.404-1.968,22.995,0.67
		c1.431,0.496,2.81,1.146,4.246,1.624c2.733,0.91,4.852,2.668,6.944,4.826c-0.248,0.23-0.426,0.479-0.667,0.609
		c-4.266,2.296-7.856,5.446-11.213,8.882c-1.013,1.038-2.104,1.476-3.581,1.519c-7.021,0.201-14.039,0.537-21.06,0.8
		C280.448,549.996,278.942,549.948,277.117,549.948z"/>
	<path fill-rule="evenodd" clip-rule="evenodd" fill="#1A4B7E" d="M556.958,136.265c3.425-0.649,6.391-1.214,9.357-1.772
		c1.646-0.31,3.3-0.574,4.937-0.923c0.941-0.201,1.688-0.002,2.418,0.625c7.072,6.084,12.714,13.19,15.957,22.051
		c0.508,1.386,0.473,2.537-0.392,3.807c-0.627,0.921-1.314,1.219-2.35,1.245c-3.908,0.098-7.826,0.121-11.719,0.439
		c-2.322,0.19-3.975-0.697-5.541-2.184c-4.026-3.822-7.49-8.081-10.004-13.042c-0.895-1.765-1.634-3.644-2.163-5.549
		C557.065,139.545,557.124,138.003,556.958,136.265z"/>
	<path fill-rule="evenodd" clip-rule="evenodd" fill="#1A4B7E" d="M299.941,607.466c-1.904,6.63-3.752,13.064-5.67,19.742
		c-3.166-0.007-6.254,1.011-9.452,0.119c-3.996-1.112-8.053-2.022-12.018-3.232c-4.648-1.42-8.727-3.914-12.273-7.25
		c-0.465-0.438-0.902-0.905-1.318-1.389c-0.138-0.159-0.167-0.411-0.292-0.742c2.084-0.679,4.14-1.251,6.122-2.014
		c4.32-1.662,8.596-3.443,12.905-5.134c3.436-1.348,6.968-2.329,10.676-2.541C292.516,604.802,296.233,605.424,299.941,607.466z"/>
	<path fill-rule="evenodd" clip-rule="evenodd" fill="#1A4B7E" d="M267.024,9.827c-0.309,2.097-0.572,3.977-0.863,5.852
		c-0.599,3.865-1.235,7.724-1.802,11.594c-0.127,0.866-0.453,1.461-1.213,1.909c-1.919,1.129-3.779,2.197-6.054,2.716
		c-2.61,0.596-5.071,1.887-7.562,2.957c-3.012,1.293-6.008,2.598-9.326,2.889c-0.78,0.069-1.558,0.175-2.559,0.29
		c0.088-1.034,0.07-1.895,0.248-2.714c0.739-3.395,0.697-6.809,0.383-10.239c-0.271-2.942,0.815-5.663,1.459-8.447
		c0.112-0.487,0.793-0.976,1.322-1.212c5.624-2.501,11.307-4.839,17.487-5.609C261.313,9.468,264.073,9.428,267.024,9.827z"/>
	<path fill-rule="evenodd" clip-rule="evenodd" fill="#1A4B7E" d="M89.856,438.204c5.072,0,10.172-0.042,15.269,0.039
		c0.894,0.015,1.842,0.426,2.654,0.861c3.355,1.797,6.082,4.25,8.213,7.476c2.197,3.326,4.72,6.439,7.09,9.652
		c1.317,1.785,1.771,3.217,1.877,5.932c-2.751,0.308-5.514,0.636-8.281,0.921c-2.7,0.278-5.408,0.482-8.106,0.781
		c-1.246,0.138-2.301-0.157-3.419-0.736c-2.984-1.547-5.26-3.697-7.019-6.603c-2.604-4.301-5.409-8.487-8.295-12.605
		C88.516,442.034,88.222,440.361,89.856,438.204z"/>
	<path fill-rule="evenodd" clip-rule="evenodd" fill="#1A4B7E" d="M511.32,492.583c0.532,3.927,1.121,7.865,1.581,11.82
		c0.258,2.207,0.36,4.437,0.421,6.659c0.046,1.678-0.652,3.132-1.898,4.245c-2.853,2.549-5.636,5.194-8.653,7.533
		c-3.089,2.394-6.44,4.443-9.64,6.698c-0.98,0.691-1.934,1.039-3.292,0.51c-0.116-1.342-0.275-2.756-0.355-4.176
		c-0.266-4.705-0.472-9.413-0.774-14.116c-0.071-1.109,0.106-2.088,0.807-2.906c1.81-2.114,3.492-4.383,5.547-6.232
		c3.082-2.772,6.424-5.26,9.686-7.829C506.545,493.375,508.798,492.651,511.32,492.583z"/>
	<path fill-rule="evenodd" clip-rule="evenodd" fill="#1A4B7E" d="M61.271,376.217c3.54,0.339,7.05,0.543,10.515,1.056
		c2.023,0.299,4.042,0.923,5.94,1.699c2.335,0.956,4.005,2.618,5.168,5.023c3.136,6.48,5.471,13.236,7.673,20.123
		c-1.398,1.083-2.802,1.485-4.496,1.273c-2.771-0.347-5.56-0.649-8.348-0.729c-3.513-0.1-6.35-1.562-8.665-4.02
		c-3.483-3.7-6.284-7.815-7.289-12.955c-0.474-2.424-1.084-4.833-1.829-7.187C59.386,378.75,59.595,377.394,61.271,376.217z"/>
	<path fill-rule="evenodd" clip-rule="evenodd" fill="#1A4B7E" d="M574.141,131.085c-2.809,0.282-5.499,0.569-8.194,0.819
		c-3.263,0.303-6.528,0.582-9.794,0.852c-0.469,0.039-1.037,0.128-1.404-0.079c-2.2-1.245-4.593-2.112-6.281-4.248
		c-3.318-4.196-6.805-8.263-10.318-12.298c-1.271-1.459-0.561-3.013-0.786-4.751c1.281-0.33,2.48-0.692,3.702-0.942
		c2.043-0.419,4-0.99,5.858-2.006c2.762-1.51,5.746-1.826,8.837-1.164c1.299,0.279,2.365,0.841,3.215,1.901
		c3.248,4.053,6.549,8.064,9.8,12.116c1.501,1.87,2.949,3.784,4.391,5.702C574.321,128.524,574.301,128.54,574.141,131.085z"/>
	<path fill-rule="evenodd" clip-rule="evenodd" fill="#1A4B7E" d="M571.936,166.86c0.503-0.653,0.919-1.137,1.271-1.663
		c0.59-0.88,1.349-1.201,2.429-1.119c4.934,0.374,9.894,0.495,14.798,1.094c2.286,0.279,4.309,1.775,5.372,3.944
		c2.6,5.299,5.073,10.661,7.541,16.023c1.109,2.412,1.075,4.931,0.403,7.571c-3.354-0.479-6.639-0.951-9.924-1.415
		c-1.737-0.246-3.471-0.6-5.217-0.691c-3.591-0.187-5.876-2.139-7.406-5.183C578.124,179.293,575.074,173.151,571.936,166.86z"/>
	<path fill-rule="evenodd" clip-rule="evenodd" fill="#1A4B7E" d="M572.242,415.591c1.645,3.69,3.062,6.897,4.502,10.095
		c1.313,2.915,2.66,5.813,3.173,9.012c0.379,2.366,0.121,4.434-1.489,6.478c-4.155,5.271-8.075,10.729-12.094,16.108
		c-0.33,0.442-0.691,0.862-1.05,1.307c-1.641-0.17-2.581-1.024-3.229-2.475c-1.434-3.209-2.907-6.405-4.527-9.522
		c-1.309-2.517-1.522-5.127-0.565-7.648c1.04-2.739,2.355-5.419,3.893-7.914c2.805-4.549,6.27-8.671,8.607-13.541
		C569.884,416.611,571.297,416.208,572.242,415.591z"/>
	<path fill-rule="evenodd" clip-rule="evenodd" fill="#1A4B7E" d="M72.572,408.409c6.943-0.548,13.493-0.243,19.47,3.359
		c4.082,2.462,7.127,5.879,9.125,10.212c1.472,3.192,2.922,6.396,4.371,9.599c0.289,0.639,0.529,1.3,0.911,2.245
		c-1.206,0.096-2.2,0.178-3.195,0.252c-3.428,0.255-6.864,0.422-10.28,0.783c-3.056,0.323-5.661-0.638-8.096-2.33
		c-2.947-2.05-5.276-4.712-6.941-7.833c-2.026-3.797-3.729-7.767-5.59-11.652C71.616,411.517,72.225,410.102,72.572,408.409z"/>
	<path fill-rule="evenodd" clip-rule="evenodd" fill="#1A4B7E" d="M394.049,610.676c-1.928,3.659-3.479,7.292-5.656,10.5
		c-1.439,2.119-3.729,3.688-5.746,5.373c-0.553,0.462-1.501,0.646-2.262,0.631c-3.589-0.066-7.177-0.233-10.764-0.403
		c-0.46-0.021-0.935-0.218-1.36-0.422c-4.606-2.211-9.208-4.429-13.795-6.679c-0.467-0.229-0.825-0.677-1.383-1.151
		c0.52-0.475,0.864-0.893,1.299-1.169c5.327-3.381,10.664-6.746,16.004-10.106c3.222-2.026,6.797-2.465,10.386-1.668
		c3.647,0.811,7.21,2.032,10.759,3.225C392.437,609.111,393.15,609.989,394.049,610.676z"/>
	<path fill-rule="evenodd" clip-rule="evenodd" fill="#1A4B7E" d="M435.783,19.882c-0.444,0.574-0.742,1.034-1.112,1.426
		c-3.177,3.372-6.382,6.717-9.542,10.104c-0.748,0.801-1.545,1.249-2.669,1.34c-1.827,0.148-3.634,0.538-5.46,0.705
		c-0.933,0.085-1.918,0.036-2.83-0.172c-4.513-1.027-9.001-2.161-13.515-3.188c-1.863-0.424-3.301-1.499-4.943-2.741
		c1.518-2.568,3.176-5.009,4.454-7.634c1.476-3.032,3.795-5.103,6.67-6.577c1.235-0.634,2.706-0.942,4.103-1.1
		c3.135-0.354,6.237,0.098,9.217,1.069c3.64,1.185,7.265,2.444,10.809,3.885C432.635,17.678,434.103,18.856,435.783,19.882z"/>
	<path fill-rule="evenodd" clip-rule="evenodd" fill="#1A4B7E" d="M332.112,0.631c0.335,1.895,0.326,3.416-0.434,4.933
		c-2.292,4.573-4.545,9.165-6.764,13.773c-0.584,1.214-1.409,1.803-2.77,1.893c-7.021,0.465-14.036,1.011-21.057,1.475
		c-2.224,0.147-2.806-0.527-2.919-2.731c-0.103-1.964,0.229-3.8,1.109-5.563c1.355-2.712,2.48-5.557,4.031-8.149
		c2.299-3.84,5.722-5.807,10.374-5.667c5.274,0.159,10.557,0.037,15.836,0.037C330.376,0.631,331.231,0.631,332.112,0.631z"/>
	<path fill-rule="evenodd" clip-rule="evenodd" fill="#1A4B7E" d="M369.34,571.854c0.274-1.096,0.345-2.152,0.788-3.018
		c2.73-5.331,5.558-10.613,8.322-15.927c0.442-0.852,0.982-1.293,1.994-1.42c5.784-0.725,11.563-1.499,17.331-2.335
		c1.996-0.289,3.761,0.275,5.755,0.965c-0.419,3.005-0.863,5.91-1.217,8.825c-0.217,1.787-0.786,3.373-1.893,4.816
		c-1.02,1.329-1.98,2.721-2.798,4.18c-0.885,1.58-2.166,2.384-3.869,2.891c-6.063,1.806-12.273,2.024-18.515,1.853
		C373.44,572.634,371.653,572.192,369.34,571.854z"/>
	<path fill-rule="evenodd" clip-rule="evenodd" fill="#1A4B7E" d="M598.731,401.354c-1.951,0.66-3.116,0.17-4.095-1.541
		c-2.418-4.229-5.011-8.358-7.58-12.499c-0.623-1.004-0.919-1.94-0.611-3.146c2.271-8.895,4.487-17.803,6.731-26.705
		c0.074-0.295,0.262-0.562,0.485-1.025c0.57,0.614,1.064,1.098,1.503,1.628c3.618,4.37,7.197,8.772,10.855,13.109
		c0.932,1.104,1.382,2.255,1.426,3.686c0.097,3.162-0.348,6.26-1.497,9.167C603.634,389.882,601.117,395.66,598.731,401.354z"/>
	<path fill-rule="evenodd" clip-rule="evenodd" fill="#1A4B7E" d="M441.525,21.91c2.981,0.758,5.752,1.462,8.522,2.169
		c0.152,0.039,0.307,0.093,0.444,0.169c4.886,2.712,9.774,5.421,14.645,8.16c0.315,0.178,0.493,0.598,0.884,1.094
		c-0.547,0.595-1.09,1.145-1.585,1.733c-1.329,1.582-2.62,3.196-3.964,4.766c-0.509,0.594-1.031,1.268-1.699,1.616
		c-1.977,1.031-3.988,2.022-6.062,2.837c-2.882,1.133-5.676,1.336-8.763,0.039c-4.697-1.974-9.631-3.385-14.465-5.034
		c-0.378-0.129-0.771-0.221-1.135-0.378c-1.393-0.602-1.834-1.658-0.933-2.806c3.328-4.244,5.966-9.12,10.872-11.953
		C439.451,23.65,440.462,22.712,441.525,21.91z"/>
	<path fill-rule="evenodd" clip-rule="evenodd" fill="#1A4B7E" d="M157.271,83.957c-0.827-4.193-1.624-8.176-2.388-12.164
		c-0.135-0.702-0.128-1.431-0.19-2.147c-0.271-3.09,0.512-5.716,2.706-8.093c5.137-5.564,11.11-10.027,17.597-14.258
		c0.329,0.706,0.631,1.229,0.826,1.79c2.877,8.26,2.907,8.263,2.347,17.057c-0.084,1.309-0.569,2.616-1.016,3.872
		c-0.997,2.805-2.905,4.838-5.375,6.502c-2.646,1.783-5.237,3.687-7.634,5.788C162.062,84.129,159.836,84.481,157.271,83.957z"/>
	<path fill-rule="evenodd" clip-rule="evenodd" fill="#1A4B7E" d="M469.974,36.361c8.846,4.723,17.644,9.42,26.497,14.147
		c-0.733,1.85-1.706,3.067-3.536,3.778c-5.287,2.054-10.504,4.29-15.733,6.487c-0.999,0.419-1.828,0.62-2.892-0.023
		c-6.637-4.008-13.323-7.935-19.989-11.895c-0.201-0.119-0.363-0.304-0.643-0.542C457.789,42.534,464.287,40.101,469.974,36.361z"/>
	<path fill-rule="evenodd" clip-rule="evenodd" fill="#1A4B7E" d="M235.683,17.777c0.745,7.292,0.002,14.16-1.878,20.909
		c-0.167,0.601-0.71,1.31-1.262,1.556c-7.218,3.227-14.469,6.379-21.714,9.546c-0.059,0.026-0.146-0.015-0.505-0.062
		c-1.558-6.088-2.724-12.196,0.738-18.188c0.12-0.208,0.275-0.399,0.367-0.618c2.091-4.992,6.235-7.428,11.113-8.974
		c3.578-1.134,7.144-2.308,10.718-3.456C234.008,18.25,234.768,18.045,235.683,17.777z"/>
	<path fill-rule="evenodd" clip-rule="evenodd" fill="#1A4B7E" d="M58.477,201.88c1.128,1.146,2.193,1.994,2.967,3.054
		c3.579,4.907,7.048,9.893,10.626,14.8c0.813,1.115,1.061,2.137,0.852,3.528c-0.889,5.924-1.666,11.865-2.391,17.812
		c-0.214,1.755-0.925,3.175-2.015,4.424c-1.901,0.204-3.219-0.615-4.456-1.906c-3.152-3.289-6.37-6.517-9.631-9.698
		c-1.444-1.409-1.916-2.867-1.555-4.927c1.271-7.236,2.377-14.502,3.447-21.771C56.587,205.394,57.29,203.856,58.477,201.88z"/>
	<path fill-rule="evenodd" clip-rule="evenodd" fill="#1A4B7E" d="M433.888,558.731c-0.02-2.208-0.183-3.952-0.02-5.666
		c0.331-3.493,0.886-6.966,1.257-10.456c0.268-2.508,1.833-4.376,2.999-6.437c0.235-0.415,0.897-0.629,1.4-0.847
		c6.002-2.603,12.021-5.166,18.011-7.8c1.138-0.5,2.005-0.544,3.064,0.258c1.099,0.829,0.815,1.748,0.667,2.774
		c-0.366,2.526-0.822,5.05-0.999,7.592c-0.267,3.822-1.806,7.26-3.014,10.796c-0.223,0.652-0.883,1.341-1.517,1.638
		c-5.203,2.435-10.402,4.89-15.706,7.09C438.334,558.377,436.327,558.337,433.888,558.731z"/>
	<path fill-rule="evenodd" clip-rule="evenodd" fill="#1A4B7E" d="M224.357,640.526c-1.739-2.045-3.479-4.089-5.346-6.281
		c0.52-0.484,1.074-1.002,1.693-1.579c1.846,1.707,3.564,3.297,5.284,4.888c0.144-0.144,0.286-0.288,0.43-0.432
		c-1.077-1.087-2.161-2.167-3.23-3.262c-1.738-1.781-1.85-2.1-0.4-4.043c1.089-1.46,2.347-2.83,3.702-4.048
		c4.334-3.895,8.782-7.662,13.109-11.564c1.195-1.078,2.382-1.479,4.113-0.962c0.367,2.013,0.77,4.109,1.128,6.213
		c0.834,4.887,1.632,9.792,0.691,14.746c-0.753,3.961-2.019,7.697-5.115,10.579c-1.555,1.447-3.284,1.7-5.4,1.395
		c-0.404,0.691-0.874,1.497-1.535,2.631c-1.413-1.371-2.662-2.66-3.999-3.851c-0.871-0.775-1.871-1.407-2.811-2.102
		C225.902,642.08,225.13,641.302,224.357,640.526z"/>
	<path fill-rule="evenodd" clip-rule="evenodd" fill="#1A4B7E" d="M462.052,545.983c1.241-4.14,1.267-8.295,1.454-12.442
		c0.164-3.609,0.749-7.146,2.376-10.443c0.616-1.249,1.413-2.247,2.628-3.005c3.459-2.158,6.872-4.391,10.272-6.64
		c2.05-1.356,4.357-1.825,6.839-2.339c0.119,0.501,0.261,0.861,0.283,1.229c0.347,5.586,0.693,11.172,1.005,16.76
		c0.2,3.575-1.651,6.068-4.565,7.731c-3.468,1.979-7.087,3.691-10.617,5.563c-1.053,0.559-2.158,1.126-3.012,1.931
		C466.859,546.082,464.771,546.613,462.052,545.983z"/>
	<path fill-rule="evenodd" clip-rule="evenodd" fill="#1A4B7E" d="M108.383,111.559c2.098,5.458,4.75,10.752,5.849,16.615
		c0.488,2.604,0.299,4.918-1.263,7.26c-3.188,4.777-6.099,9.739-9.13,14.62c-0.414,0.668-0.868,1.311-1.495,2.253
		c-0.77-0.596-1.575-0.978-2.026-1.612c-1.85-2.599-3.634-5.248-5.354-7.936c-0.77-1.203-1.409-2.506-1.971-3.822
		c-1.591-3.731-1.271-7.294,1.031-10.686c3.407-5.019,6.825-10.031,10.113-15.128C105.154,111.546,106.278,110.875,108.383,111.559z
		"/>
	<path fill-rule="evenodd" clip-rule="evenodd" fill="#1A4B7E" d="M120.358,128.133c-2.937-0.11-2.934-0.111-3.833-2.479
		c-2.037-5.365-4.045-10.741-6.138-16.084c-0.68-1.736-0.101-3.095,0.886-4.43c3.129-4.237,6.262-8.472,9.393-12.708
		c0.712-0.962,1.404-1.94,2.135-2.888c1.571-2.038,2.303-2.188,4.707-1.341c0.879,0.309,1.235,0.766,1.416,1.66
		c0.946,4.688,2.093,9.338,2.903,14.047c0.387,2.252,0.204,4.605,0.227,6.913c0.004,0.364-0.209,0.775-0.428,1.091
		C127.861,117.354,124.08,122.783,120.358,128.133z"/>
	<path fill-rule="evenodd" clip-rule="evenodd" fill="#1A4B7E" d="M136.681,104.949c-1.822-5.066-4.001-9.881-4.755-15.127
		c-0.245-1.707-0.074-3.502,0.11-5.235c0.254-2.385,1.388-4.253,3.298-5.854c4.644-3.892,9.121-7.983,13.705-12.028
		c1.57,0.148,2.411,1.046,2.991,2.56c1.769,4.614,2.727,9.335,2.354,14.283c-0.286,3.787-1.663,7.103-4.323,9.871
		c-2.213,2.303-4.446,4.592-6.529,7.01C141.69,102.565,139.25,103.646,136.681,104.949z"/>
	<path fill-rule="evenodd" clip-rule="evenodd" fill="#1A4B7E" d="M610.912,368.476c-1.796,0.066-2.802-0.723-3.839-2.051
		c-3.196-4.096-6.582-8.045-9.984-11.974c-0.975-1.125-1.324-2.222-1.164-3.688c0.712-6.515,1.325-13.041,1.998-19.561
		c0.198-1.918,1.438-3.306,2.568-4.964c3.373,2.271,7.093,3.818,9.602,7.138c1.394,1.844,3.02,3.52,4.605,5.21
		c0.722,0.77,0.979,1.542,0.808,2.589c-1.461,8.91-2.885,17.826-4.327,26.738C611.154,368.064,611.047,368.2,610.912,368.476z"/>
	<path fill-rule="evenodd" clip-rule="evenodd" fill="#1A4B7E" d="M298.203,3.085c-1.886,6.809-3.735,13.482-5.636,20.344
		c-3.199,0.64-6.388,1.292-9.583,1.913c-3.996,0.776-7.997,1.526-11.996,2.287c-2.338,0.445-2.971-0.062-2.813-2.401
		c0.281-4.144,0.601-8.285,0.938-12.424c0.217-2.665,3.051-5.837,5.964-6.427c5.784-1.171,11.584-2.278,17.404-3.247
		C294.25,2.837,296.106,3.085,298.203,3.085z"/>
	<path fill-rule="evenodd" clip-rule="evenodd" fill="#1A4B7E" d="M616.056,334.751c-4.064-3.925-8.097-7.57-11.814-11.513
		c-1.896-2.011-2.387-4.876-2.514-7.597c-0.171-3.666-0.049-7.346-0.057-11.02c-0.003-1.278,0.128-2.578-0.06-3.829
		c-0.28-1.875,0.296-3.42,1.275-4.948c1.144-1.783,2.138-2.075,3.887-0.854c1.506,1.051,2.95,2.192,4.419,3.296
		c2.364,1.776,4.707,3.579,7.1,5.316c0.842,0.612,1.263,1.271,1.257,2.368c-0.043,8.151-0.037,16.303-0.005,24.455
		c0.004,1.054-0.28,1.832-1.155,2.44C617.672,333.364,617.022,333.962,616.056,334.751z"/>
	<path fill-rule="evenodd" clip-rule="evenodd" fill="#1A4B7E" d="M134.456,498.033c1.145-2.329,2.889-3.393,5.032-4.117
		c3.358-1.136,6.7-2.003,10.31-1.805c3.296,0.181,6.334,1.003,8.983,2.936c3.034,2.213,5.956,4.58,8.927,6.881
		c1.2,0.93,2.344,1.949,3.615,2.771c1.242,0.802,2.021,1.765,1.97,3.492c-4.84,2.026-9.629,4.431-15.07,4.914
		c-0.398,0.035-0.814,0.034-1.188,0.154c-3.759,1.209-6.954-0.059-9.812-2.376c-4.405-3.574-8.859-7.117-12.126-11.862
		C134.873,498.694,134.665,498.356,134.456,498.033z"/>
	<path fill-rule="evenodd" clip-rule="evenodd" fill="#1A4B7E" d="M583.997,431.928c-1.335,0.066-1.927-0.477-2.33-1.351
		c-2.043-4.421-4.324-8.748-6.079-13.28c-1.431-3.694-1.689-7.638-0.063-11.457c0.906-2.129,1.885-4.228,2.813-6.347
		c1.402-3.202,2.79-6.411,4.364-10.032c0.731-0.224,1.938-0.591,3.387-1.032c0.99,4.144,4.238,6.667,6.525,9.871
		c1.174,1.645,1.77,3.726,2.476,5.665c0.181,0.496-0.129,1.234-0.355,1.806c-2.936,7.424-5.883,14.842-8.864,22.246
		C585.338,429.341,584.64,430.599,583.997,431.928z"/>
	<path fill-rule="evenodd" clip-rule="evenodd" fill="#1A4B7E" d="M51.135,340.882c3.826,1.805,7.423,3.529,11.051,5.188
		c0.924,0.423,1.95,0.619,2.92,0.949c0.517,0.176,1.033,0.374,1.509,0.637c0.416,0.229,0.774,0.563,1.159,0.848
		c4.616,3.418,4.623,3.416,6.786,8.605c0.243,0.583,0.394,1.211,0.533,1.831c0.912,4.045,1.792,8.099,2.721,12.141
		c0.322,1.402,0.372,1.391-1.518,3.249c-5.141-1.759-10.343-3.538-15.544-5.32c-0.68-0.233-1.336-0.589-2.033-0.706
		c-2.08-0.346-2.853-1.8-3.283-3.616c-1.548-6.523-3.105-13.044-4.661-19.565C50.455,343.781,50.416,342.464,51.135,340.882z"/>
	<path fill-rule="evenodd" clip-rule="evenodd" fill="#1A4B7E" d="M87.331,139.167c0.579,0,1.063,0.058,1.528-0.011
		c1.371-0.204,2.154,0.443,2.903,1.552c5.639,8.354,6.784,17.269,3.163,26.649c-1.226,3.175-2.983,6.16-4.662,9.139
		c-0.957,1.696-3.153,1.599-4.267-0.019c-2.803-4.072-5.629-8.128-8.372-12.24c-0.458-0.687-0.698-1.607-0.774-2.444
		c-0.228-2.514,0.332-4.929,1.32-7.227c0.566-1.316,1.201-2.617,1.947-3.838C82.445,146.919,84.839,143.15,87.331,139.167z"/>
	<path fill-rule="evenodd" clip-rule="evenodd" fill="#1A4B7E" d="M598.213,230.348c1.202,0.431,2.394,0.85,3.579,1.285
		c4.425,1.624,8.828,3.307,13.281,4.847c1.341,0.463,1.816,1.189,2.017,2.553c0.716,4.895,1.246,9.825,2.733,14.586
		c0.744,2.381,0.955,4.875,0.486,7.356c-0.493,2.612-2.455,3.498-4.768,2.126c-4.537-2.69-9.018-5.477-13.562-8.157
		c-1.207-0.712-1.759-1.796-2.262-2.979c-1.525-3.585-1.9-7.407-2.326-11.22c-0.177-1.589-0.172-3.241-0.641-4.743
		C596.06,233.784,596.917,232.146,598.213,230.348z"/>
	<path fill-rule="evenodd" clip-rule="evenodd" fill="#1A4B7E" d="M202.541,524.231c-2.449,2.862-5.024,4.905-8.111,6.066
		c-2.82,1.061-5.775,1.826-8.729,2.449c-2.73,0.576-5.292-0.146-7.65-1.713c-5.716-3.8-11.478-7.531-17.405-11.41
		c0.492-0.431,0.842-0.809,1.257-1.091c2.703-1.84,5.349-3.779,8.158-5.442c1.835-1.087,3.894-1.813,5.899-2.579
		c0.411-0.156,1.076,0.143,1.547,0.383c7.751,3.954,15.493,7.923,23.223,11.919C201.322,523.12,201.804,523.644,202.541,524.231z"/>
	<path fill-rule="evenodd" clip-rule="evenodd" fill="#1A4B7E" d="M432.395,540.43c-0.521,4.373-1.042,8.868-1.593,13.36
		c-0.316,2.577-1.149,4.985-2.688,7.092c-0.394,0.538-0.998,1.105-1.61,1.272c-8.008,2.188-16.035,4.307-24.059,6.437
		c-0.054,0.014-0.13-0.051-0.356-0.148c0.047-0.398,0.056-0.858,0.158-1.296c0.788-3.341,1.705-6.657,2.363-10.023
		c0.658-3.368,2.769-5.917,4.65-8.549c0.756-1.057,2.313-1.729,3.642-2.155C419.434,544.328,426.01,542.377,432.395,540.43z"/>
	<path fill-rule="evenodd" clip-rule="evenodd" fill="#1A4B7E" d="M382.481,543.256c2.658-4.629,5.536-8.382,9.417-11.302
		c2.243-1.688,4.621-3.085,7.462-3.608c1.806-0.333,3.482-0.15,5.131,0.573c2.044,0.897,4.027,1.971,6.135,2.678
		c4.223,1.415,5.769,4.644,6.426,8.916c-0.899,0.411-1.771,1.003-2.727,1.215c-5.603,1.237-11.221,2.406-16.846,3.54
		c-0.659,0.133-1.491,0.11-2.069-0.183c-2.581-1.306-5.346-1.488-8.145-1.586C385.849,543.45,384.433,543.357,382.481,543.256z"/>
	<path fill-rule="evenodd" clip-rule="evenodd" fill="#1A4B7E" d="M251.123,544.948c-3.476,5.201-5.565,10.793-7.342,16.341
		c-1.851,0.797-3.406,0.53-5.046-0.094c-5.148-1.956-10.338-3.802-15.512-5.691c-0.524-0.191-1.076-0.337-1.563-0.6
		c-1.181-0.637-1.356-1.761-0.357-2.674c1.354-1.238,2.712-2.501,4.209-3.549c2.616-1.832,5.313-3.553,8.037-5.22
		c0.702-0.43,1.627-0.66,2.458-0.685c2.794-0.082,5.593-0.052,8.389-0.023C246.799,542.778,248.756,544.105,251.123,544.948z"/>
	<path fill-rule="evenodd" clip-rule="evenodd" fill="#1A4B7E" d="M305.761,606.256c8.842-0.324,17.227,1.069,24.788,6.86
		c-1.559,0.984-2.861,1.854-4.208,2.649c-7.062,4.175-14.805,6.686-22.542,9.209c-0.91,0.297-1.807,0.654-2.735,0.865
		c-1.134,0.259-1.662-0.156-1.709-1.319c-0.024-0.624,0.022-1.295,0.229-1.876c1.876-5.257,3.792-10.499,5.709-15.74
		C305.37,606.692,305.565,606.522,305.761,606.256z"/>
	<path fill-rule="evenodd" clip-rule="evenodd" fill="#1A4B7E" d="M383.919,582.804c-5.047,6.685-10.132,12.458-16.729,17.18
		c-5.219-4.628-11.723-7.192-18.016-10.85c3.104-1.854,5.525-4.244,8.959-5.184c6.445-1.763,12.932-2.916,19.631-2.188
		C379.655,581.967,381.521,582.391,383.919,582.804z"/>
	<path fill-rule="evenodd" clip-rule="evenodd" fill="#1A4B7E" d="M293.063,581.912c-0.223,0.999-0.342,1.678-0.526,2.338
		c-1.313,4.689-2.64,9.375-3.963,14.062c-0.108,0.384-0.215,0.77-0.349,1.146c-1.045,2.94-1.745,3.314-4.829,3.474
		c-1.995,0.103-3.505-0.463-4.907-1.866c-1.577-1.579-3.306-3.018-5.045-4.424c-1.197-0.968-1.874-2.137-2.011-3.649
		c-0.036-0.397-0.09-0.794-0.154-1.188c-0.457-2.825,0.198-3.997,2.771-5.26c2.985-1.465,6.237-1.932,9.428-2.628
		C286.569,583.241,289.673,582.618,293.063,581.912z"/>
	<path fill-rule="evenodd" clip-rule="evenodd" fill="#1A4B7E" d="M425.491,590.145c-1.563,0.086-2.284-0.615-2.426-2.054
		c-0.428-4.358-3.105-7.204-6.488-9.572c-1.569-1.099-3.074-2.293-4.682-3.33c-1.665-1.074-2.342-2.508-2.071-4.447
		c0.076-0.546,0.058-1.105,0.087-1.755c0.538-0.199,1.03-0.458,1.555-0.563c3.753-0.758,7.51-1.499,11.271-2.214
		c1.944-0.37,3.629,0.872,3.578,2.695c-0.188,6.703-0.423,13.405-0.65,20.106C425.652,589.396,425.55,589.777,425.491,590.145z"/>
	<path fill-rule="evenodd" clip-rule="evenodd" fill="#1A4B7E" d="M370.043,553.556c1.535,0.526,1.916,1.362,1.596,2.692
		c-0.468,1.937-0.792,3.907-1.193,5.861c-1.179,5.751-6.455,9.872-12.302,9.612c-0.397-0.018-0.824,0.01-1.185-0.124
		c-3.357-1.25-6.703-2.531-10.332-3.909c0.62-0.502,1.042-0.91,1.524-1.224c1.742-1.129,3.457-2.311,5.274-3.305
		c1.231-0.675,2.62-1.063,3.933-1.591c0.733-0.295,1.49-0.557,2.18-0.936c3.289-1.81,6.531-3.693,9.343-6.226
		C369.231,554.093,369.645,553.846,370.043,553.556z"/>
	<path fill-rule="evenodd" clip-rule="evenodd" fill="#1A4B7E" d="M248.271,608.107c0.659,0.513,1.104,0.805,1.485,1.164
		c2.851,2.686,5.699,5.373,8.527,8.084c2.104,2.018,2.282,4.365,0.55,6.711c-1.898,2.572-3.853,5.105-5.682,7.726
		c-0.793,1.136-1.815,1.33-2.912,0.956c-0.568-0.193-1.046-0.872-1.387-1.439c-0.223-0.371-0.155-0.934-0.169-1.412
		c-0.11-3.771-0.457-7.485-2.336-10.884c-0.215-0.389-0.33-0.947-0.239-1.373C246.774,614.541,247.503,611.457,248.271,608.107z"/>
	<path fill-rule="evenodd" clip-rule="evenodd" fill="#1A4B7E" d="M459.751,637.915c2.286,1.511,4.405,2.91,6.684,4.415
		c-0.389,0.526-0.657,0.977-1.008,1.351c-5.234,5.584-10.474,11.163-15.726,16.73c-1.707,1.809-2.712,1.627-3.582-0.625
		c-0.603-1.558-1.154-3.134-1.788-4.862C449.489,649.306,454.356,643.42,459.751,637.915z"/>
	<path fill-rule="evenodd" clip-rule="evenodd" fill="#1A4B7E" d="M386.427,626.791c2.358-3.715,4.374-7.249,6.754-10.519
		c1.652-2.269,3.489-3.021,6.188-1.341c2.085,1.298,4.255,2.461,6.467,3.729c-0.165,1.033-0.126,2.054-0.517,2.868
		c-0.376,0.781-1.077,1.679-1.842,1.957c-5.099,1.854-10.348,3.142-15.771,3.605C387.422,627.115,387.124,626.96,386.427,626.791z"
		/>
	<path fill-rule="evenodd" clip-rule="evenodd" fill="#1A4B7E" d="M420.373,594.148c-0.448-0.147-0.979-0.273-1.47-0.49
		c-3.641-1.61-7.256-3.282-10.921-4.838c-1.212-0.514-1.658-1.206-1.604-2.527c0.105-2.541,0.03-5.09,0.03-7.524
		c1.06-1.021,2.079-0.95,3.207-0.501c2.115,0.842,3.992,2.059,5.468,3.758c1.663,1.916,3.191,3.955,4.694,6.002
		C421.135,589.874,421.613,591.889,420.373,594.148z"/>
	<path fill-rule="evenodd" clip-rule="evenodd" fill="#1A4B7E" d="M310.207,549.44c2.091-2.463,4.124-4.904,6.224-7.286
		c0.322-0.365,0.947-0.637,1.44-0.651c3.418-0.102,6.844-0.262,10.256-0.128c2.862,0.111,2.924,0.34,3.892,3.731
		c-2.03,0.799-4.034,1.806-6.155,2.373c-4.229,1.132-8.521,2.03-12.791,3.004C312.102,550.705,311.165,550.64,310.207,549.44z"/>
	<path fill-rule="evenodd" clip-rule="evenodd" fill="#1A4B7E" d="M427.601,630.061c5.128,0.341,10.129,0.674,15.459,1.027
		c-0.459,0.699-0.694,1.156-1.019,1.537c-1.869,2.188-3.719,4.395-5.667,6.51c-0.552,0.599-1.38,0.98-2.139,1.341
		c-1.198,0.568-2.091,0.152-2.855-0.925c-0.876-1.236-1.792-2.484-2.891-3.513C426.677,634.341,426.679,632.463,427.601,630.061z"/>
	<path fill-rule="evenodd" clip-rule="evenodd" fill="#1A4B7E" d="M457.033,633.525c0.911,0.962,1.609,1.699,2.339,2.469
		c-6.062,5.886-11.993,11.646-17.969,17.447c-0.211-0.324-0.629-0.97-1.194-1.843C445.765,645.629,451.297,639.686,457.033,633.525z
		"/>
	<path fill-rule="evenodd" clip-rule="evenodd" fill="#1A4B7E" d="M452.392,629.421c-0.816-0.118-1.423-0.205-2.234-0.322
		c0.492-0.522,0.854-0.906,1.326-1.407c0.667,0.818,1.253,1.538,2.028,2.489c-5.396,5.63-10.951,11.427-16.729,17.455
		c-0.892-1.535-1.663-2.861-2.533-4.359c2.684-3.068,5.257-6.351,8.209-9.247c1.546-1.519,3.755-2.361,5.664-3.509
		c0.114,0.123,0.228,0.246,0.341,0.369c-3.695,3.969-7.391,7.938-11.085,11.907c2.129-0.634,4.259-1.28,5.753-2.901
		C446.214,636.553,449.164,633.089,452.392,629.421z"/>
	<path fill-rule="evenodd" clip-rule="evenodd" fill="#1A4B7E" d="M439.261,650.691c-0.611-0.701-1.071-1.229-1.722-1.976
		c5.429-5.981,10.813-11.915,16.368-18.036c0.878,0.815,1.65,1.532,2.595,2.409C450.687,639.025,445.023,644.808,439.261,650.691z"
		/>
	<path fill-rule="evenodd" clip-rule="evenodd" fill="#1A4B7E" d="M228.346,653.347c-0.532-0.532-1.064-1.064-1.597-1.598
		c-1.007-0.776-2.015-1.553-3.021-2.329c-0.994-1.06-1.988-2.118-2.974-3.173c-2.114-2.243-4.236-4.49-6.521-6.91
		c0.5-0.524,1.014-1.063,1.682-1.762c4.765,4.491,9.388,8.849,14.124,13.313C229.475,651.79,229.821,653.118,228.346,653.347z"/>
	<path fill-rule="evenodd" clip-rule="evenodd" fill="#1A4B7E" d="M224.357,640.526c0.772,0.776,1.545,1.554,2.314,2.328
		c1.893,1.805,3.786,3.612,5.829,5.56c-0.414,0.861-0.803,1.672-1.335,2.779c-5.026-4.901-9.802-9.558-14.878-14.509
		c0.669-0.631,1.221-1.149,1.889-1.779C220.385,636.913,222.371,638.719,224.357,640.526z"/>
	<path fill-rule="evenodd" clip-rule="evenodd" fill="none" d="M223.728,649.42c1.007,0.776,2.015,1.553,3.021,2.329
		C225.742,650.973,224.734,650.197,223.728,649.42z"/>
	<path fill-rule="evenodd" clip-rule="evenodd" fill="none" d="M328.91,218.293c0,19.458,0,38.917,0,58.519
		c-0.742,0.059-1.358,0.138-1.976,0.152c-11.903,0.278-23.808,0.577-35.713,0.784c-1.517,0.026-2.491,0.488-3.407,1.691
		c-2.855,3.752-5.828,7.414-8.765,11.104c-0.532,0.669-1.106,1.306-1.835,2.163c-1.021-1.148-1.904-2.141-2.972-3.342
		c18.104-23.799,36.173-47.55,54.241-71.302C328.626,218.139,328.769,218.216,328.91,218.293z"/>
	<path fill-rule="evenodd" clip-rule="evenodd" fill="none" d="M216.692,230.367c14.567,18.379,29.136,36.759,43.838,55.308
		c-1.75,1.967-3.43,3.854-5.323,5.982c-0.589-0.903-1.07-1.6-1.51-2.322c-4.072-6.691-8.175-13.364-12.177-20.098
		c-0.829-1.396-1.728-1.978-3.399-1.951c-6.475,0.104-12.953,0.042-19.43,0.042c-0.855,0-1.711,0-2.855,0
		c0.13-12.449,0.257-24.615,0.384-36.782C216.377,230.487,216.535,230.427,216.692,230.367z"/>
</g>
</svg>
