<?xml version="1.0" standalone="no"?>
<!DOCTYPE svg PUBLIC "-//W3C//DTD SVG 20010904//EN"
 "http://www.w3.org/TR/2001/REC-SVG-20010904/DTD/svg10.dtd">
<svg version="1.0" xmlns="http://www.w3.org/2000/svg"
 width="197.000000pt" height="197.000000pt" viewBox="0 0 197.000000 197.000000"
 preserveAspectRatio="xMidYMid meet">
<metadata>
Created by potrace 1.11, written by Peter Selinger 2001-2013
</metadata>
<g transform="translate(0.000000,197.000000) scale(0.100000,-0.100000)"
fill="#000000" stroke="none">
<path d="M745 1946 c-44 -13 -93 -31 -110 -40 -16 -9 -34 -16 -39 -16 -5 0
-24 -11 -42 -25 -18 -14 -37 -25 -43 -25 -6 0 -23 -13 -38 -30 -14 -16 -32
-30 -38 -30 -7 0 -21 -12 -31 -26 -10 -14 -31 -32 -46 -40 -15 -7 -30 -23 -33
-34 -4 -11 -17 -32 -31 -47 -13 -14 -24 -33 -24 -41 0 -8 -7 -20 -15 -26 -9
-6 -22 -29 -30 -51 -8 -22 -14 -35 -15 -30 -3 32 -60 -137 -60 -177 0 -16 -5
-28 -11 -28 -7 0 -9 -55 -6 -172 2 -134 7 -182 20 -212 9 -21 17 -47 17 -58 0
-11 6 -32 14 -46 8 -15 22 -46 31 -69 10 -24 21 -43 25 -43 5 0 11 -11 14 -24
3 -13 17 -34 31 -47 13 -13 25 -29 25 -35 0 -11 113 -120 149 -144 13 -8 29
-21 37 -27 7 -7 20 -13 28 -13 9 0 16 -4 16 -9 0 -10 104 -65 143 -74 24 -7
27 -12 27 -48 0 -22 5 -49 10 -60 9 -16 7 -21 -12 -28 -13 -5 -40 -27 -61 -50
-20 -23 -41 -41 -47 -41 -18 0 -10 -36 13 -58 25 -23 57 -29 57 -11 0 14 25
39 39 39 6 0 11 4 11 9 0 4 13 21 28 37 27 29 30 29 62 16 28 -11 42 -12 75
-2 57 16 95 34 95 43 0 9 42 -12 51 -26 10 -15 146 -22 163 -8 16 13 34 -1 66
-48 46 -70 63 -75 99 -30 22 28 22 31 7 48 -9 10 -16 23 -16 29 0 7 -5 12 -10
12 -14 0 -91 81 -85 90 2 3 5 25 6 48 2 35 6 42 23 42 12 0 36 9 54 20 18 11
37 20 43 20 15 0 129 81 129 91 0 5 5 9 11 9 25 0 189 190 189 220 0 5 5 10
10 10 6 0 10 5 10 11 0 6 11 34 25 61 14 28 30 67 35 87 5 20 16 63 24 96 17
68 21 276 7 334 -5 20 -15 63 -22 96 -14 72 -38 127 -50 119 -5 -3 -9 6 -9 20
0 14 -4 27 -9 30 -5 3 -23 31 -40 61 -18 31 -38 58 -45 61 -8 3 -17 16 -20 30
-4 13 -19 32 -34 41 -15 10 -41 32 -59 50 -17 18 -39 33 -47 33 -9 0 -16 4
-16 10 0 5 -19 19 -42 31 -24 12 -45 24 -48 28 -11 13 -51 31 -70 31 -11 0
-20 5 -20 11 0 5 -4 8 -9 4 -5 -3 -12 -1 -16 5 -3 5 -21 10 -39 10 -17 0 -37
5 -43 11 -7 7 -75 13 -185 15 -158 3 -180 1 -253 -20z m363 -1673 c71 2 82 0
82 -15 0 -14 -5 -15 -32 -7 -45 13 -122 11 -135 -2 -9 -9 -20 -9 -43 1 -22 9
-27 15 -19 21 7 4 16 6 20 3 4 -2 11 0 14 6 5 8 11 8 19 1 7 -6 49 -10 94 -8z
m-230 -8 c-2 -1 -22 -5 -45 -8 -29 -3 -43 -1 -43 7 0 7 16 10 46 8 25 -2 44
-5 42 -7z"/>
</g>
</svg>
