<?xml version="1.0" standalone="no"?>
<!DOCTYPE svg PUBLIC "-//W3C//DTD SVG 20010904//EN"
 "http://www.w3.org/TR/2001/REC-SVG-20010904/DTD/svg10.dtd">
<svg version="1.0" xmlns="http://www.w3.org/2000/svg"
 width="2254.000000pt" height="2254.000000pt" viewBox="0 0 2254.000000 2254.000000"
 preserveAspectRatio="xMidYMid meet">
<metadata>
Created by potrace 1.11, written by Peter Selinger 2001-2013
</metadata>
<g transform="translate(0.000000,2254.000000) scale(0.100000,-0.100000)"
fill="#000000" stroke="none">
<path d="M7329 21055 c-48 -26 -53 -57 -30 -206 124 -815 76 -1848 -125 -2734
-53 -230 -153 -568 -209 -703 l-14 -32 -83 66 c-521 417 -1252 624 -1913 543
-467 -58 -919 -282 -1289 -639 -339 -327 -596 -766 -705 -1205 -41 -164 -54
-275 -55 -460 -1 -195 15 -321 59 -482 14 -48 25 -91 25 -94 0 -3 -51 -47
-112 -96 -253 -202 -415 -420 -564 -756 -163 -371 -238 -695 -251 -1087 -16
-490 103 -1003 348 -1493 153 -305 315 -535 610 -862 443 -491 994 -895 1541
-1129 551 -235 1170 -365 1933 -407 515 -28 1067 32 1474 160 l65 20 151 -152
c367 -368 653 -781 953 -1375 167 -329 309 -654 578 -1320 191 -473 293 -718
387 -932 350 -799 871 -1614 1317 -2060 164 -165 263 -247 432 -359 199 -133
365 -210 657 -305 815 -265 1660 -294 2491 -86 840 210 1629 665 2227 1283
432 448 787 953 989 1412 210 476 309 986 349 1800 13 262 -23 683 -86 1002
-148 756 -531 1469 -1033 1925 -729 661 -1623 974 -3051 1069 -99 7 -187 16
-195 20 -12 7 -11 8 6 9 30 0 352 72 567 126 764 191 1467 432 3012 1032 1782
691 2621 1156 3080 1706 451 541 447 1197 -10 1651 -586 583 -1907 760 -3380
455 -572 -119 -1166 -318 -1629 -547 -60 -29 -110 -52 -112 -51 -1 2 27 55 63
118 400 700 410 1134 33 1390 -269 183 -628 171 -1045 -35 -268 -133 -500
-309 -800 -610 -468 -467 -775 -902 -1222 -1730 -876 -1620 -1423 -2827 -1423
-3140 l0 -44 -117 40 c-349 120 -741 315 -1053 522 -41 28 -76 50 -77 51 -1 1
-13 53 -27 116 -14 63 -40 161 -57 217 -25 81 -35 100 -48 96 -9 -2 25 17 74
44 463 251 812 688 959 1199 63 220 91 477 75 704 -32 495 -293 1035 -689
1430 -240 240 -476 397 -790 526 -178 72 -455 134 -604 134 -66 0 -65 -2 -119
165 -117 355 -160 697 -139 1088 18 320 57 560 123 767 34 106 115 279 153
325 l25 30 -25 -73 c-73 -212 -73 -447 -3 -680 52 -170 175 -359 301 -461 148
-121 351 -188 538 -178 188 11 320 67 440 187 41 41 90 100 108 132 121 206
134 479 36 784 -85 268 -264 475 -520 603 -81 41 -237 91 -281 91 -38 0 -19
17 110 104 184 122 331 185 530 227 141 30 383 30 547 1 372 -67 756 -244
1060 -489 175 -140 382 -369 520 -573 l58 -86 -34 -39 c-19 -22 -49 -69 -67
-105 -30 -61 -32 -71 -32 -175 0 -135 22 -198 96 -279 98 -108 204 -152 343
-144 114 7 182 36 262 110 140 131 176 320 95 493 -75 161 -265 264 -436 237
-33 -6 -60 -9 -61 -8 0 0 -31 46 -69 101 -225 329 -532 627 -830 808 -215 130
-478 240 -723 301 -318 80 -670 75 -942 -14 -231 -76 -470 -220 -665 -402 -64
-60 -87 -75 -154 -98 -418 -145 -648 -644 -691 -1505 -18 -372 18 -697 116
-1034 20 -67 42 -138 50 -157 8 -18 14 -37 14 -42 0 -4 -53 -13 -117 -20 -216
-23 -435 -78 -663 -167 -137 -53 -332 -146 -361 -171 -15 -13 -20 -6 -49 73
-78 206 -235 480 -367 641 l-60 74 34 86 c194 494 337 1179 400 1912 22 259
25 974 5 1210 -16 188 -59 513 -73 557 -20 63 -83 89 -140 58z m2318 -1680
c253 -58 489 -262 582 -503 65 -170 90 -404 56 -537 -35 -138 -124 -259 -230
-317 -161 -86 -387 -75 -561 27 -110 64 -227 205 -285 345 -78 185 -96 413
-45 583 31 104 80 206 147 303 55 79 84 109 114 117 29 8 150 -2 222 -18z"/>
</g>
</svg>
